<?xml version="1.0" encoding="utf-8"?>
<!-- Generator: Adobe Illustrator 17.0.0, SVG Export Plug-In . SVG Version: 6.00 Build 0)  -->
<!DOCTYPE svg PUBLIC "-//W3C//DTD SVG 1.1//EN" "http://www.w3.org/Graphics/SVG/1.1/DTD/svg11.dtd">
<svg version="1.1" xmlns="http://www.w3.org/2000/svg" xmlns:xlink="http://www.w3.org/1999/xlink" x="0px" y="0px" width="191px"
	 height="172px" viewBox="0 0 191 172" enable-background="new 0 0 191 172" xml:space="preserve">
<g id="Layer_2">
	<g>
		<path fill="#8C8C8C" d="M608.046-295.197c0.426,39.275-32.426,71.741-71.791,71.635c-39.201-0.106-71.607-32.574-71.487-71.92
			c0.12-39.21,32.635-71.658,72.067-71.456C575.912-366.738,608.524-334.385,608.046-295.197z M603.774-295.202
			c0.026-37.13-30.112-67.325-67.24-67.366c-37.132-0.041-67.339,30.083-67.396,67.211c-0.057,37.178,30.123,67.415,67.299,67.425
			C573.568-227.923,603.748-258.073,603.774-295.202z"/>
		<path fill="#C6C6C6" d="M513.297-339.563c-3.583,0-7.091,0-10.668,0c0-3.557,0-7.065,0-10.673c3.509,0,7.044,0,10.668,0
			C513.297-346.738,513.297-343.202,513.297-339.563z"/>
		<path fill="#C6C6C6" d="M559.589-296.804c0-3.6,0-7.077,0-10.641c3.577,0,7.112,0,10.713,0c0,3.533,0,7.043,0,10.641
			C566.761-296.804,563.224-296.804,559.589-296.804z"/>
		<path fill="#C6C6C6" d="M531.095-339.596c0-3.595,0-7.08,0-10.652c3.577,0,7.118,0,10.722,0c0,3.539,0,7.053,0,10.652
			C538.274-339.596,534.732-339.596,531.095-339.596z"/>
		<path fill="#C6C6C6" d="M474.108-296.812c0-3.577,0-7.055,0-10.627c3.567,0,7.102,0,10.709,0c0,3.514,0,7.022,0,10.627
			C481.292-296.812,477.757-296.812,474.108-296.812z"/>
		<path fill="#C6C6C6" d="M570.312-350.271c0,3.609,0,7.123,0,10.698c-3.569,0-7.084,0-10.682,0c0-3.551,0-7.093,0-10.698
			C563.178-350.271,566.691-350.271,570.312-350.271z"/>
		<path fill="#C6C6C6" d="M513.32-311.063c-3.603,0-7.116,0-10.694,0c0-3.567,0-7.079,0-10.678c3.551,0,7.091,0,10.694,0
			C513.32-318.197,513.32-314.685,513.32-311.063z"/>
		<path fill="#C6C6C6" d="M502.602-325.332c0-3.585,0-7.06,0-10.628c3.574,0,7.108,0,10.712,0c0,3.52,0,7.028,0,10.628
			C509.78-325.332,506.243-325.332,502.602-325.332z"/>
		<path fill="#C6C6C6" d="M541.812-307.432c0,3.579,0,7.086,0,10.654c-3.573,0-7.08,0-10.671,0c0-3.545,0-7.048,0-10.654
			C534.654-307.432,538.189-307.432,541.812-307.432z"/>
		<path fill="#C6C6C6" d="M531.097-311.092c0-3.595,0-7.076,0-10.646c3.576,0,7.114,0,10.717,0c0,3.54,0,7.051,0,10.646
			C538.271-311.092,534.732-311.092,531.097-311.092z"/>
		<path fill="#C6C6C6" d="M502.595-296.816c0-3.564,0-7.044,0-10.621c3.565,0,7.102,0,10.714,0c0,3.501,0,7.011,0,10.621
			C509.791-296.816,506.256-296.816,502.595-296.816z"/>
		<path fill="#C6C6C6" d="M559.654-321.784c3.589,0,7.069,0,10.631,0c0,3.582,0,7.12,0,10.717c-3.55,0-7.062,0-10.631,0
			C559.654-314.651,559.654-318.215,559.654-321.784z"/>
		<path fill="#C6C6C6" d="M588.12-307.479c3.591,0,7.099,0,10.675,0c0,3.56,0,7.067,0,10.669c-3.532,0-7.065,0-10.675,0
			C588.12-300.342,588.12-303.844,588.12-307.479z"/>
		<path fill="#C6C6C6" d="M474.154-293.248c3.553,0,7.059,0,10.65,0c0,3.565,0,7.098,0,10.691c-3.551,0-7.06,0-10.65,0
			C474.154-286.111,474.154-289.647,474.154-293.248z"/>
		<path fill="#C6C6C6" d="M502.619-282.563c0-3.594,0-7.101,0-10.68c3.566,0,7.074,0,10.674,0c0,3.545,0,7.08,0,10.68
			C509.762-282.563,506.251-282.563,502.619-282.563z"/>
		<path fill="#C6C6C6" d="M531.145-293.244c3.545,0,7.052,0,10.646,0c0,3.553,0,7.087,0,10.684c-3.539,0-7.049,0-10.646,0
			C531.145-286.104,531.145-289.639,531.145-293.244z"/>
		<path fill="#C6C6C6" d="M570.31-293.242c0,3.597,0,7.106,0,10.679c-3.566,0-7.076,0-10.675,0c0-3.536,0-7.071,0-10.679
			C563.173-293.242,566.68-293.242,570.31-293.242z"/>
		<path fill="#C6C6C6" d="M598.78-282.558c-3.55,0-7.058,0-10.651,0c0-3.555,0-7.088,0-10.689c3.558,0,7.062,0,10.651,0
			C598.78-289.683,598.78-286.15,598.78-282.558z"/>
		<path fill="#C6C6C6" d="M502.592-268.296c0-3.578,0-7.061,0-10.636c3.57,0,7.111,0,10.721,0c0,3.515,0,7.028,0,10.636
			C509.79-268.296,506.25-268.296,502.592-268.296z"/>
		<path fill="#C6C6C6" d="M531.122-278.963c3.617,0,7.129,0,10.699,0c0,3.571,0,7.083,0,10.678c-3.558,0-7.097,0-10.699,0
			C531.122-271.843,531.122-275.352,531.122-278.963z"/>
		<path fill="#C6C6C6" d="M570.303-250.428c0,3.583,0,7.096,0,10.666c-3.575,0-7.086,0-10.678,0c0-3.546,0-7.057,0-10.666
			C563.137-250.428,566.677-250.428,570.303-250.428z"/>
		<path fill="#C6C6C6" d="M559.585-268.29c0-3.598,0-7.079,0-10.646c3.577,0,7.115,0,10.718,0c0,3.534,0,7.046,0,10.646
			C566.762-268.29,563.223-268.29,559.585-268.29z"/>
		<path fill="#C6C6C6" d="M502.63-264.713c3.546,0,7.06,0,10.664,0c0,3.519,0,7.024,0,10.623c-3.516,0-7.055,0-10.664,0
			C502.63-257.616,502.63-261.126,502.63-264.713z"/>
		<path fill="#C6C6C6" d="M502.63-250.475c3.595,0,7.11,0,10.689,0c0,3.565,0,7.079,0,10.682c-3.537,0-7.079,0-10.689,0
			C502.63-243.327,502.63-246.84,502.63-250.475z"/>
		<path fill="#C6C6C6" d="M541.822-250.446c0,3.554,0,7.066,0,10.661c-3.56,0-7.1,0-10.702,0c0-3.559,0-7.07,0-10.661
			C534.685-250.446,538.225-250.446,541.822-250.446z"/>
		<path fill="#C6C6C6" d="M527.542-296.789c-3.574,0-7.077,0-10.649,0c0-3.579,0-7.085,0-10.668c3.549,0,7.055,0,10.649,0
			C527.542-303.909,527.542-300.374,527.542-296.789z"/>
		<path fill="#C6C6C6" d="M545.405-307.472c3.57,0,7.077,0,10.648,0c0,3.57,0,7.078,0,10.671c-3.556,0-7.055,0-10.648,0
			C545.405-300.332,545.405-303.837,545.405-307.472z"/>
		<path fill="#C6C6C6" d="M573.865-296.795c0-3.6,0-7.079,0-10.647c3.566,0,7.101,0,10.696,0c0,3.555,0,7.062,0,10.647
			C580.991-296.795,577.49-296.795,573.865-296.795z"/>
		<path fill="#C6C6C6" d="M516.917-350.298c3.584,0,7.059,0,10.624,0c0,3.569,0,7.108,0,10.716c-3.525,0-7.027,0-10.624,0
			C516.917-343.123,516.917-346.656,516.917-350.298z"/>
		<path fill="#C6C6C6" d="M556.009-339.575c-3.63,0-7.102,0-10.635,0c0-3.57,0-7.079,0-10.674c3.519,0,7.023,0,10.635,0
			C556.009-346.715,556.009-343.151,556.009-339.575z"/>
		<path fill="#C6C6C6" d="M488.402-282.565c0-3.574,0-7.081,0-10.669c3.556,0,7.061,0,10.653,0c0,3.559,0,7.099,0,10.669
			C495.484-282.565,491.975-282.565,488.402-282.565z"/>
		<path fill="#C6C6C6" d="M499.069-325.295c-3.59,0-7.061,0-10.632,0c0-3.549,8.466,1.158,8.466-2.446
			c3.494,0-1.44-8.206,2.166-8.206C499.069-332.432,499.069-328.928,499.069-325.295z"/>
		<path fill="#C6C6C6" d="M527.547-282.544c-3.559,0-7.037,0-10.619,0c0-3.554,0-7.086,0-10.695c3.529,0,7.033,0,10.619,0
			C527.547-289.695,527.547-286.188,527.547-282.544z"/>
		<path fill="#C6C6C6" d="M527.544-325.317c-3.59,0-7.092,0-10.656,0c0-3.579,0-7.082,0-10.66c3.566,0,7.068,0,10.656,0
			C527.544-332.447,527.544-328.947,527.544-325.317z"/>
		<path fill="#C6C6C6" d="M556.025-282.56c-3.553,0-7.061,0-10.641,0c0-3.567,0-7.073,0-10.667c3.54,0,7.044,0,10.641,0
			C556.025-289.688,556.025-286.148,556.025-282.56z"/>
		<path fill="#C6C6C6" d="M541.812-335.961c0,3.528,0,7.034,0,10.63c-3.539,0-7.075,0-10.682,0c0-3.54,0-7.039,0-10.63
			C534.68-335.961,538.212-335.961,541.812-335.961z"/>
		<path fill="#C6C6C6" d="M584.548-282.541c-3.578,0-7.056,0-10.631,0c0-3.563,0-7.096,0-10.702c3.542,0,7.046,0,10.631,0
			C584.548-289.683,584.548-286.177,584.548-282.541z"/>
		<path fill="#C6C6C6" d="M545.389-325.313c0-3.562,0-7.063,0-10.652c3.524,0,7.024,0,10.626,0c0,3.528,0,7.054,0,10.652
			C552.468-325.313,548.968-325.313,545.389-325.313z"/>
		<path fill="#C6C6C6" d="M488.403-268.273c0-3.581,0-7.092,0-10.676c3.549,0,7.061,0,10.656,0c0,3.549,0,7.093,0,10.676
			C495.485-268.273,491.977-268.273,488.403-268.273z"/>
		<path fill="#C6C6C6" d="M559.582-325.346c0-3.625,0-7.062,0-10.603c3.566,0,7.098,0,10.708,0c0,3.488,0,6.993,0,10.603
			C566.743-325.346,563.181-325.346,559.582-325.346z"/>
		<path fill="#C6C6C6" d="M527.538-268.267c-3.613,0-7.09,0-10.64,0c0-3.575,0-7.086,0-10.676c3.526,0,7.038,0,10.64,0
			C527.538-275.409,527.538-271.869,527.538-268.267z"/>
		<path fill="#C6C6C6" d="M573.889-325.351c0-3.532,0-7.035,0-10.62c3.542,0,7.044,0,10.644,0c0,3.512,0,7.011,0,10.62
			C581.02-325.351,577.49-325.351,573.889-325.351z"/>
		<path fill="#C6C6C6" d="M488.4-311.072c0-3.575,0-7.086,0-10.677c3.555,0,7.066,0,10.659,0c0,3.552,0,7.099,0,10.677
			C495.489-311.072,491.977-311.072,488.4-311.072z"/>
		<path fill="#C6C6C6" d="M488.374-325.322c0-3.575,0-7.086,0-10.677c3.555,0,7.066,0,10.659,0c0,3.552,0,7.099,0,10.677
			C495.463-325.322,491.951-325.322,488.374-325.322z"/>
		<path fill="#C6C6C6" d="M527.563-321.767c0,3.587,0,7.1,0,10.686c-3.552,0-7.058,0-10.653,0c0-3.555,0-7.09,0-10.686
			C520.459-321.767,523.936-321.767,527.563-321.767z"/>
		<path fill="#C6C6C6" d="M573.889-268.269c0-3.578,0-7.089,0-10.677c3.538,0,7.05,0,10.652,0c0,3.54,0,7.081,0,10.677
			C580.971-268.269,577.464-268.269,573.889-268.269z"/>
		<path fill="#C6C6C6" d="M488.42-264.729c3.602,0,7.077,0,10.637,0c0,3.566,0,7.074,0,10.658c-3.539,0-7.045,0-10.637,0
			C488.42-257.609,488.42-261.114,488.42-264.729z"/>
		<path fill="#C6C6C6" d="M556.003-311.05c-3.545,0-7.025,0-10.599,0c0-3.576,0-7.111,0-10.712c3.53,0,7.007,0,10.599,0
			C556.003-318.237,556.003-314.702,556.003-311.05z"/>
		<path fill="#C6C6C6" d="M516.907-264.728c3.605,0,7.08,0,10.639,0c0,3.568,0,7.075,0,10.658c-3.541,0-7.048,0-10.639,0
			C516.907-257.611,516.907-261.117,516.907-264.728z"/>
		<path fill="#C6C6C6" d="M531.126-264.714c3.557,0,7.069,0,10.668,0c0,3.526,0,7.031,0,10.627c-3.524,0-7.062,0-10.668,0
			C531.126-257.624,531.126-261.131,531.126-264.714z"/>
		<path fill="#C6C6C6" d="M556.027-268.268c-3.616,0-7.092,0-10.642,0c0-3.576,0-7.086,0-10.676c3.529,0,7.04,0,10.642,0
			C556.027-275.408,556.027-271.867,556.027-268.268z"/>
		<path fill="#C6C6C6" d="M559.603-254.087c0-3.599,0-7.076,0-10.627c3.568,0,7.081,0,10.679,0c0,3.527,0,7.031,0,10.627
			C566.757-254.087,563.219-254.087,559.603-254.087z"/>
		<path fill="#C6C6C6" d="M573.921-264.726c3.538,0,7.017,0,10.603,0c0,3.524,0,7.028,0,10.631c-3.492,0-6.996,0-10.603,0
			C573.921-257.568,573.921-261.072,573.921-264.726z"/>
		<path fill="#C6C6C6" d="M584.546-321.753c0,3.566,0,7.11,0,10.677c-3.583,0-7.096,0-10.667,0c0-3.579,0-7.09,0-10.677
			C577.443-321.753,580.952-321.753,584.546-321.753z"/>
		<path fill="#C6C6C6" d="M527.564-250.426c0,3.526,0,7.041,0,10.64c-3.546,0-7.05,0-10.648,0c0-3.52,0-7.03,0-10.64
			C520.423-250.426,523.961-250.426,527.564-250.426z"/>
		<path fill="#C6C6C6" d="M488.387-296.799c0-3.589,0-7.068,0-10.64c3.554,0,7.09,0,10.691,0c0,3.54,0,7.049,0,10.64
			C495.518-296.799,492.019-296.799,488.387-296.799z"/>
		<path fill="#C6C6C6" d="M545.393-250.476c3.561,0,7.042,0,10.623,0c0,3.551,0,7.09,0,10.701c-3.528,0-7.034,0-10.623,0
			C545.393-243.327,545.393-246.84,545.393-250.476z"/>
		<path fill="#C6C6C6" d="M545.387-254.066c0-3.576,0-7.082,0-10.655c3.554,0,7.032,0,10.621,0c0,3.541,0,7.078,0,10.655
			C552.465-254.066,548.954-254.066,545.387-254.066z"/>
	</g>
	<path d="M488.437-335.947c3.59,0,7.061,0,10.632,0c0,3.549-8.466-1.158-8.466,2.446c-3.494,0,1.44,8.206-2.166,8.206
		C488.437-328.81,488.437-332.314,488.437-335.947z"/>
	<ellipse fill="#C6C6C6" cx="537.347" cy="-295.474" rx="67.048" ry="64.932"/>
	<circle fill="#F7F7F7" cx="495.726" cy="-317.853" r="1.011"/>
	<circle fill="#F7F7F7" cx="495.726" cy="-331.632" r="1.011"/>
	<circle fill="#F7F7F7" cx="510.794" cy="-318.405" r="1.011"/>
	<circle fill="#F7F7F7" cx="510.794" cy="-332.184" r="1.011"/>
	<circle fill="#F7F7F7" cx="523.977" cy="-318.129" r="1.011"/>
	<circle fill="#F7F7F7" cx="523.977" cy="-331.908" r="1.011"/>
	<circle fill="#F7F7F7" cx="539.045" cy="-318.681" r="1.011"/>
	<circle fill="#F7F7F7" cx="539.045" cy="-332.46" r="1.011"/>
	<circle fill="#F7F7F7" cx="552.14" cy="-318.864" r="1.011"/>
	<circle fill="#F7F7F7" cx="552.14" cy="-332.643" r="1.011"/>
	<circle fill="#F7F7F7" cx="509.827" cy="-347.213" r="1.011"/>
	<circle fill="#F7F7F7" cx="524.895" cy="-347.765" r="1.011"/>
	<circle fill="#F7F7F7" cx="538.079" cy="-347.489" r="1.011"/>
	<circle fill="#F7F7F7" cx="553.147" cy="-348.041" r="1.011"/>
	<circle fill="#F7F7F7" cx="566.241" cy="-348.224" r="1.011"/>
	<circle fill="#F7F7F7" cx="509.691" cy="-248.404" r="1.011"/>
	<circle fill="#F7F7F7" cx="524.759" cy="-248.956" r="1.011"/>
	<circle fill="#F7F7F7" cx="537.942" cy="-248.68" r="1.011"/>
	<circle fill="#F7F7F7" cx="553.01" cy="-249.233" r="1.011"/>
	<circle fill="#F7F7F7" cx="566.104" cy="-249.415" r="1.011"/>
	<circle fill="#F7F7F7" cx="567.207" cy="-319.416" r="1.011"/>
	<circle fill="#F7F7F7" cx="567.207" cy="-333.195" r="1.011"/>
	<circle fill="#F7F7F7" cx="581.455" cy="-319.416" r="1.011"/>
	<circle fill="#F7F7F7" cx="581.455" cy="-333.195" r="1.011"/>
	<circle fill="#F7F7F7" cx="480.903" cy="-289.653" r="1.011"/>
	<circle fill="#F7F7F7" cx="480.903" cy="-303.432" r="1.011"/>
	<circle fill="#F7F7F7" cx="495.971" cy="-290.205" r="1.011"/>
	<circle fill="#F7F7F7" cx="495.971" cy="-303.984" r="1.011"/>
	<circle fill="#F7F7F7" cx="509.383" cy="-289.613" r="1.011"/>
	<circle fill="#F7F7F7" cx="509.383" cy="-303.392" r="1.011"/>
	<circle fill="#F7F7F7" cx="524.45" cy="-290.165" r="1.011"/>
	<circle fill="#F7F7F7" cx="524.45" cy="-303.944" r="1.011"/>
	<circle fill="#F7F7F7" cx="537.898" cy="-289.653" r="1.011"/>
	<circle fill="#F7F7F7" cx="537.898" cy="-303.432" r="1.011"/>
	<circle fill="#F7F7F7" cx="552.966" cy="-290.205" r="1.011"/>
	<circle fill="#F7F7F7" cx="552.966" cy="-303.984" r="1.011"/>
	<circle fill="#F7F7F7" cx="566.387" cy="-289.06" r="1.011"/>
	<circle fill="#F7F7F7" cx="566.387" cy="-302.84" r="1.011"/>
	<circle fill="#F7F7F7" cx="581.455" cy="-289.613" r="1.011"/>
	<circle fill="#F7F7F7" cx="581.455" cy="-303.392" r="1.011"/>
	<circle fill="#F7F7F7" cx="495.216" cy="-261.794" r="1.011"/>
	<circle fill="#F7F7F7" cx="495.216" cy="-275.573" r="1.011"/>
	<circle fill="#F7F7F7" cx="510.284" cy="-262.346" r="1.011"/>
	<circle fill="#F7F7F7" cx="510.284" cy="-276.126" r="1.011"/>
	<circle fill="#F7F7F7" cx="523.977" cy="-261.817" r="1.011"/>
	<circle fill="#F7F7F7" cx="523.977" cy="-275.596" r="1.011"/>
	<circle fill="#F7F7F7" cx="539.045" cy="-262.369" r="1.011"/>
	<circle fill="#F7F7F7" cx="539.045" cy="-276.148" r="1.011"/>
	<circle fill="#F7F7F7" cx="552.966" cy="-261.817" r="1.011"/>
	<circle fill="#F7F7F7" cx="552.966" cy="-275.596" r="1.011"/>
	<circle fill="#F7F7F7" cx="568.034" cy="-262.369" r="1.011"/>
	<circle fill="#F7F7F7" cx="568.034" cy="-276.148" r="1.011"/>
	<circle fill="#F7F7F7" cx="596.022" cy="-289.929" r="1.011"/>
	<circle fill="#F7F7F7" cx="596.022" cy="-303.708" r="1.011"/>
	<path d="M499.069-325.295c-3.59,0-7.061,0-10.632,0c0-3.549,8.466,1.158,8.466-2.446c3.494,0-1.44-8.206,2.166-8.206
		C499.069-332.432,499.069-328.928,499.069-325.295z"/>
	<path fill="#999999" d="M488.437-335.947c3.59,0,7.061,0,10.632,0c0,3.549-8.466-1.158-8.466,2.446
		c-3.494,0,1.44,8.206-2.166,8.206C488.437-328.81,488.437-332.314,488.437-335.947z"/>
	<path d="M513.29-339.613c-3.59,0-7.061,0-10.632,0c0-3.549,8.466,1.158,8.466-2.446c3.494,0-1.44-8.206,2.166-8.206
		C513.29-346.75,513.29-343.247,513.29-339.613z"/>
	<path fill="#999999" d="M502.658-350.266c3.59,0,7.061,0,10.632,0c0,3.549-8.466-1.158-8.466,2.446
		c-3.494,0,1.44,8.206-2.166,8.206C502.658-343.129,502.658-346.632,502.658-350.266z"/>
	<path d="M527.532-339.573c-3.59,0-7.061,0-10.632,0c0-3.549,8.466,1.158,8.466-2.446c3.494,0-1.44-8.206,2.166-8.206
		C527.532-346.71,527.532-343.206,527.532-339.573z"/>
	<path fill="#999999" d="M516.9-350.225c3.59,0,7.061,0,10.632,0c0,3.549-8.466-1.158-8.466,2.446c-3.494,0,1.44,8.206-2.166,8.206
		C516.9-343.088,516.9-346.592,516.9-350.225z"/>
	<path d="M541.453-339.573c-3.59,0-7.061,0-10.632,0c0-3.549,8.466,1.158,8.466-2.446c3.494,0-1.44-8.206,2.166-8.206
		C541.453-346.71,541.453-343.206,541.453-339.573z"/>
	<path fill="#999999" d="M530.82-350.225c3.59,0,7.061,0,10.632,0c0,3.549-8.466-1.158-8.466,2.446c-3.494,0,1.44,8.206-2.166,8.206
		C530.82-343.088,530.82-346.592,530.82-350.225z"/>
	<path d="M556.044-339.573c-3.59,0-7.061,0-10.632,0c0-3.549,8.466,1.158,8.466-2.446c3.494,0-1.44-8.206,2.166-8.206
		C556.044-346.71,556.044-343.206,556.044-339.573z"/>
	<path fill="#999999" d="M545.412-350.225c3.59,0,7.061,0,10.632,0c0,3.549-8.466-1.158-8.466,2.446
		c-3.494,0,1.44,8.206-2.166,8.206C545.412-343.088,545.412-346.592,545.412-350.225z"/>
	<path d="M570.214-339.613c-3.59,0-7.061,0-10.632,0c0-3.549,8.466,1.158,8.466-2.446c3.494,0-1.44-8.206,2.166-8.206
		C570.214-346.75,570.214-343.247,570.214-339.613z"/>
	<path fill="#999999" d="M559.582-350.266c3.59,0,7.061,0,10.632,0c0,3.549-8.466-1.158-8.466,2.446
		c-3.494,0,1.44,8.206-2.166,8.206C559.582-343.129,559.582-346.632,559.582-350.266z"/>
	<path d="M570.214-325.295c-3.59,0-7.061,0-10.632,0c0-3.549,8.466,1.158,8.466-2.446c3.494,0-1.44-8.206,2.166-8.206
		C570.214-332.432,570.214-328.928,570.214-325.295z"/>
	<path fill="#999999" d="M559.582-335.947c3.59,0,7.061,0,10.632,0c0,3.549-8.466-1.158-8.466,2.446
		c-3.494,0,1.44,8.206-2.166,8.206C559.582-328.81,559.582-332.314,559.582-335.947z"/>
	<path d="M556.008-325.295c-3.59,0-7.061,0-10.632,0c0-3.549,8.466,1.158,8.466-2.446c3.494,0-1.44-8.206,2.166-8.206
		C556.008-332.432,556.008-328.928,556.008-325.295z"/>
	<path fill="#999999" d="M545.375-335.947c3.59,0,7.061,0,10.632,0c0,3.549-8.466-1.158-8.466,2.446
		c-3.494,0,1.44,8.206-2.166,8.206C545.375-328.81,545.375-332.314,545.375-335.947z"/>
	<path d="M541.453-325.334c-3.59,0-7.061,0-10.632,0c0-3.549,8.466,1.158,8.466-2.446c3.494,0-1.44-8.206,2.166-8.206
		C541.453-332.471,541.453-328.968,541.453-325.334z"/>
	<path fill="#999999" d="M530.82-335.987c3.59,0,7.061,0,10.632,0c0,3.549-8.466-1.158-8.466,2.446c-3.494,0,1.44,8.206-2.166,8.206
		C530.82-328.85,530.82-332.354,530.82-335.987z"/>
	<path d="M584.527-325.295c-3.59,0-7.061,0-10.632,0c0-3.549,8.466,1.158,8.466-2.446c3.494,0-1.44-8.206,2.166-8.206
		C584.527-332.432,584.527-328.928,584.527-325.295z"/>
	<path fill="#999999" d="M573.895-335.947c3.59,0,7.061,0,10.632,0c0,3.549-8.466-1.158-8.466,2.446
		c-3.494,0,1.44,8.206-2.166,8.206C573.895-328.81,573.895-332.314,573.895-335.947z"/>
	<path d="M598.77-296.819c-3.59,0-7.061,0-10.632,0c0-3.549,8.466,1.158,8.466-2.446c3.494,0-1.44-8.206,2.166-8.206
		C598.77-303.956,598.77-300.452,598.77-296.819z"/>
	<path fill="#999999" d="M588.138-307.471c3.59,0,7.061,0,10.632,0c0,3.549-8.466-1.158-8.466,2.446
		c-3.494,0,1.44,8.206-2.166,8.206C588.138-300.334,588.138-303.838,588.138-307.471z"/>
	<path d="M598.77-282.577c-3.59,0-7.061,0-10.632,0c0-3.549,8.466,1.158,8.466-2.446c3.494,0-1.44-8.206,2.166-8.206
		C598.77-289.714,598.77-286.21,598.77-282.577z"/>
	<path fill="#999999" d="M588.138-293.229c3.59,0,7.061,0,10.632,0c0,3.549-8.466-1.158-8.466,2.446
		c-3.494,0,1.44,8.206-2.166,8.206C588.138-286.092,588.138-289.596,588.138-293.229z"/>
	<path d="M584.549-282.577c-3.59,0-7.061,0-10.632,0c0-3.549,8.466,1.158,8.466-2.446c3.494,0-1.44-8.206,2.166-8.206
		C584.549-289.714,584.549-286.21,584.549-282.577z"/>
	<path fill="#999999" d="M573.917-293.229c3.59,0,7.061,0,10.632,0c0,3.549-8.466-1.158-8.466,2.446
		c-3.494,0,1.44,8.206-2.166,8.206C573.917-286.092,573.917-289.596,573.917-293.229z"/>
	<path d="M570.289-282.565c-3.59,0-7.061,0-10.632,0c0-3.549,8.466,1.158,8.466-2.446c3.494,0-1.44-8.206,2.166-8.206
		C570.289-289.702,570.289-286.198,570.289-282.565z"/>
	<path fill="#999999" d="M559.656-293.217c3.59,0,7.061,0,10.632,0c0,3.549-8.466-1.158-8.466,2.446
		c-3.494,0,1.44,8.206-2.166,8.206C559.656-286.08,559.656-289.584,559.656-293.217z"/>
	<path d="M556.008-282.565c-3.59,0-7.061,0-10.632,0c0-3.549,8.466,1.158,8.466-2.446c3.494,0-1.44-8.206,2.166-8.206
		C556.008-289.702,556.008-286.198,556.008-282.565z"/>
	<path fill="#999999" d="M545.375-293.217c3.59,0,7.061,0,10.632,0c0,3.549-8.466-1.158-8.466,2.446
		c-3.494,0,1.44,8.206-2.166,8.206C545.375-286.08,545.375-289.584,545.375-293.217z"/>
	<path d="M541.793-282.565c-3.59,0-7.061,0-10.632,0c0-3.549,8.466,1.158,8.466-2.446c3.494,0-1.44-8.206,2.166-8.206
		C541.793-289.702,541.793-286.198,541.793-282.565z"/>
	<path fill="#999999" d="M531.161-293.217c3.59,0,7.061,0,10.632,0c0,3.549-8.466-1.158-8.466,2.446
		c-3.494,0,1.44,8.206-2.166,8.206C531.161-286.08,531.161-289.584,531.161-293.217z"/>
	<path d="M584.527-311.076c-3.59,0-7.061,0-10.632,0c0-3.549,8.466,1.158,8.466-2.446c3.494,0-1.44-8.206,2.166-8.206
		C584.527-318.213,584.527-314.709,584.527-311.076z"/>
	<path fill="#999999" d="M573.895-321.729c3.59,0,7.061,0,10.632,0c0,3.549-8.466-1.158-8.466,2.446
		c-3.494,0,1.44,8.206-2.166,8.206C573.895-314.592,573.895-318.095,573.895-321.729z"/>
	<path d="M499.069-311.099c-3.59,0-7.061,0-10.632,0c0-3.549,8.466,1.158,8.466-2.446c3.494,0-1.44-8.206,2.166-8.206
		C499.069-318.236,499.069-314.732,499.069-311.099z"/>
	<path fill="#999999" d="M488.437-321.751c3.59,0,7.061,0,10.632,0c0,3.549-8.466-1.158-8.466,2.446
		c-3.494,0,1.44,8.206-2.166,8.206C488.437-314.614,488.437-318.118,488.437-321.751z"/>
	<path d="M484.795-296.819c-3.59,0-7.061,0-10.632,0c0-3.549,8.466,1.158,8.466-2.446c3.494,0-1.44-8.206,2.166-8.206
		C484.795-303.956,484.795-300.452,484.795-296.819z"/>
	<path fill="#999999" d="M474.163-307.471c3.59,0,7.061,0,10.632,0c0,3.549-8.466-1.158-8.466,2.446
		c-3.494,0,1.44,8.206-2.166,8.206C474.163-300.334,474.163-303.838,474.163-307.471z"/>
	<path d="M499.044-296.779c-3.59,0-7.061,0-10.632,0c0-3.549,8.466,1.158,8.466-2.446c3.494,0-1.44-8.206,2.166-8.206
		C499.044-303.916,499.044-300.412,499.044-296.779z"/>
	<path fill="#999999" d="M488.412-307.431c3.59,0,7.061,0,10.632,0c0,3.549-8.466-1.158-8.466,2.446
		c-3.494,0,1.44,8.206-2.166,8.206C488.412-300.294,488.412-303.798,488.412-307.431z"/>
	<path d="M513.29-296.819c-3.59,0-7.061,0-10.632,0c0-3.549,8.466,1.158,8.466-2.446c3.494,0-1.44-8.206,2.166-8.206
		C513.29-303.956,513.29-300.452,513.29-296.819z"/>
	<path fill="#999999" d="M502.658-307.471c3.59,0,7.061,0,10.632,0c0,3.549-8.466-1.158-8.466,2.446
		c-3.494,0,1.44,8.206-2.166,8.206C502.658-300.334,502.658-303.838,502.658-307.471z"/>
	<path d="M527.557-296.819c-3.59,0-7.061,0-10.632,0c0-3.549,8.466,1.158,8.466-2.446c3.494,0-1.44-8.206,2.166-8.206
		C527.557-303.956,527.557-300.452,527.557-296.819z"/>
	<path fill="#999999" d="M516.924-307.471c3.59,0,7.061,0,10.632,0c0,3.549-8.466-1.158-8.466,2.446
		c-3.494,0,1.44,8.206-2.166,8.206C516.924-300.334,516.924-303.838,516.924-307.471z"/>
	<path d="M484.771-282.585c-3.59,0-7.061,0-10.632,0c0-3.549,8.466,1.158,8.466-2.446c3.494,0-1.44-8.206,2.166-8.206
		C484.771-289.722,484.771-286.218,484.771-282.585z"/>
	<path fill="#999999" d="M474.138-293.237c3.59,0,7.061,0,10.632,0c0,3.549-8.466-1.158-8.466,2.446
		c-3.494,0,1.44,8.206-2.166,8.206C474.138-286.1,474.138-289.604,474.138-293.237z"/>
	<path d="M499.02-282.545c-3.59,0-7.061,0-10.632,0c0-3.549,8.466,1.158,8.466-2.446c3.494,0-1.44-8.206,2.166-8.206
		C499.02-289.682,499.02-286.178,499.02-282.545z"/>
	<path fill="#999999" d="M488.387-293.197c3.59,0,7.061,0,10.632,0c0,3.549-8.466-1.158-8.466,2.446
		c-3.494,0,1.44,8.206-2.166,8.206C488.387-286.06,488.387-289.564,488.387-293.197z"/>
	<path d="M513.266-282.585c-3.59,0-7.061,0-10.632,0c0-3.549,8.466,1.158,8.466-2.446c3.494,0-1.44-8.206,2.166-8.206
		C513.266-289.722,513.266-286.218,513.266-282.585z"/>
	<path fill="#999999" d="M502.634-293.237c3.59,0,7.061,0,10.632,0c0,3.549-8.466-1.158-8.466,2.446
		c-3.494,0,1.44,8.206-2.166,8.206C502.634-286.1,502.634-289.604,502.634-293.237z"/>
	<path d="M527.532-282.585c-3.59,0-7.061,0-10.632,0c0-3.549,8.466,1.158,8.466-2.446c3.494,0-1.44-8.206,2.166-8.206
		C527.532-289.722,527.532-286.218,527.532-282.585z"/>
	<path fill="#999999" d="M516.9-293.237c3.59,0,7.061,0,10.632,0c0,3.549-8.466-1.158-8.466,2.446c-3.494,0,1.44,8.206-2.166,8.206
		C516.9-286.1,516.9-289.604,516.9-293.237z"/>
	<path d="M541.453-296.819c-3.59,0-7.061,0-10.632,0c0-3.549,8.466,1.158,8.466-2.446c3.494,0-1.44-8.206,2.166-8.206
		C541.453-303.956,541.453-300.452,541.453-296.819z"/>
	<path fill="#999999" d="M530.82-307.471c3.59,0,7.061,0,10.632,0c0,3.549-8.466-1.158-8.466,2.446c-3.494,0,1.44,8.206-2.166,8.206
		C530.82-300.334,530.82-303.838,530.82-307.471z"/>
	<path d="M556.008-296.819c-3.59,0-7.061,0-10.632,0c0-3.549,8.466,1.158,8.466-2.446c3.494,0-1.44-8.206,2.166-8.206
		C556.008-303.956,556.008-300.452,556.008-296.819z"/>
	<path fill="#999999" d="M545.375-307.471c3.59,0,7.061,0,10.632,0c0,3.549-8.466-1.158-8.466,2.446
		c-3.494,0,1.44,8.206-2.166,8.206C545.375-300.334,545.375-303.838,545.375-307.471z"/>
	<path d="M570.252-296.819c-3.59,0-7.061,0-10.632,0c0-3.549,8.466,1.158,8.466-2.446c3.494,0-1.44-8.206,2.166-8.206
		C570.252-303.956,570.252-300.452,570.252-296.819z"/>
	<path fill="#999999" d="M559.62-307.471c3.59,0,7.061,0,10.632,0c0,3.549-8.466-1.158-8.466,2.446c-3.494,0,1.44,8.206-2.166,8.206
		C559.62-300.334,559.62-303.838,559.62-307.471z"/>
	<path d="M584.531-296.81c-3.59,0-7.061,0-10.632,0c0-3.549,8.466,1.158,8.466-2.446c3.494,0-1.44-8.206,2.166-8.206
		C584.531-303.947,584.531-300.443,584.531-296.81z"/>
	<path fill="#999999" d="M573.899-307.462c3.59,0,7.061,0,10.632,0c0,3.549-8.466-1.158-8.466,2.446
		c-3.494,0,1.44,8.206-2.166,8.206C573.899-300.325,573.899-303.829,573.899-307.462z"/>
	<path d="M584.527-311.099c-3.59,0-7.061,0-10.632,0c0-3.549,8.466,1.158,8.466-2.446c3.494,0-1.44-8.206,2.166-8.206
		C584.527-318.236,584.527-314.732,584.527-311.099z"/>
	<path fill="#999999" d="M573.895-321.751c3.59,0,7.061,0,10.632,0c0,3.549-8.466-1.158-8.466,2.446
		c-3.494,0,1.44,8.206-2.166,8.206C573.895-314.614,573.895-318.118,573.895-321.751z"/>
	<path d="M570.289-311.076c-3.59,0-7.061,0-10.632,0c0-3.549,8.466,1.158,8.466-2.446c3.494,0-1.44-8.206,2.166-8.206
		C570.289-318.213,570.289-314.709,570.289-311.076z"/>
	<path fill="#999999" d="M559.656-321.729c3.59,0,7.061,0,10.632,0c0,3.549-8.466-1.158-8.466,2.446
		c-3.494,0,1.44,8.206-2.166,8.206C559.656-314.592,559.656-318.095,559.656-321.729z"/>
	<path d="M556.044-311.076c-3.59,0-7.061,0-10.632,0c0-3.549,8.466,1.158,8.466-2.446c3.494,0-1.44-8.206,2.166-8.206
		C556.044-318.213,556.044-314.709,556.044-311.076z"/>
	<path fill="#999999" d="M545.412-321.729c3.59,0,7.061,0,10.632,0c0,3.549-8.466-1.158-8.466,2.446
		c-3.494,0,1.44,8.206-2.166,8.206C545.412-314.592,545.412-318.095,545.412-321.729z"/>
	<path d="M541.453-311.099c-3.59,0-7.061,0-10.632,0c0-3.549,8.466,1.158,8.466-2.446c3.494,0-1.44-8.206,2.166-8.206
		C541.453-318.236,541.453-314.732,541.453-311.099z"/>
	<path fill="#999999" d="M530.82-321.751c3.59,0,7.061,0,10.632,0c0,3.549-8.466-1.158-8.466,2.446c-3.494,0,1.44,8.206-2.166,8.206
		C530.82-314.614,530.82-318.118,530.82-321.751z"/>
	<path d="M527.557-311.099c-3.59,0-7.061,0-10.632,0c0-3.549,8.466,1.158,8.466-2.446c3.494,0-1.44-8.206,2.166-8.206
		C527.557-318.236,527.557-314.732,527.557-311.099z"/>
	<path fill="#999999" d="M516.924-321.751c3.59,0,7.061,0,10.632,0c0,3.549-8.466-1.158-8.466,2.446
		c-3.494,0,1.44,8.206-2.166,8.206C516.924-314.614,516.924-318.118,516.924-321.751z"/>
	<path d="M527.532-325.334c-3.59,0-7.061,0-10.632,0c0-3.549,8.466,1.158,8.466-2.446c3.494,0-1.44-8.206,2.166-8.206
		C527.532-332.471,527.532-328.968,527.532-325.334z"/>
	<path fill="#999999" d="M516.9-335.987c3.59,0,7.061,0,10.632,0c0,3.549-8.466-1.158-8.466,2.446c-3.494,0,1.44,8.206-2.166,8.206
		C516.9-328.85,516.9-332.354,516.9-335.987z"/>
	<path d="M513.29-325.295c-3.59,0-7.061,0-10.632,0c0-3.549,8.466,1.158,8.466-2.446c3.494,0-1.44-8.206,2.166-8.206
		C513.29-332.432,513.29-328.928,513.29-325.295z"/>
	<path fill="#999999" d="M502.658-335.947c3.59,0,7.061,0,10.632,0c0,3.549-8.466-1.158-8.466,2.446
		c-3.494,0,1.44,8.206-2.166,8.206C502.658-328.81,502.658-332.314,502.658-335.947z"/>
	<path d="M513.29-311.099c-3.59,0-7.061,0-10.632,0c0-3.549,8.466,1.158,8.466-2.446c3.494,0-1.44-8.206,2.166-8.206
		C513.29-318.236,513.29-314.732,513.29-311.099z"/>
	<path fill="#999999" d="M502.658-321.751c3.59,0,7.061,0,10.632,0c0,3.549-8.466-1.158-8.466,2.446
		c-3.494,0,1.44,8.206-2.166,8.206C502.658-314.614,502.658-318.118,502.658-321.751z"/>
	<path fill="#999999" d="M573.895-265.416c3.59,0,7.061,0,10.632,0c0,3.549-8.466-1.158-8.466,2.446
		c-3.494,0,1.44,8.206-2.166,8.206C573.895-258.279,573.895-261.783,573.895-265.416z"/>
	<path d="M584.527-254.764c-3.59,0-7.061,0-10.632,0c0-3.549,8.466,1.158,8.466-2.446c3.494,0-1.44-8.206,2.166-8.206
		C584.527-261.901,584.527-258.397,584.527-254.764z"/>
	<path fill="#999999" d="M559.673-251.098c3.59,0,7.061,0,10.632,0c0,3.549-8.466-1.158-8.466,2.446
		c-3.494,0,1.44,8.206-2.166,8.206C559.673-243.961,559.673-247.464,559.673-251.098z"/>
	<path d="M570.306-240.445c-3.59,0-7.061,0-10.632,0c0-3.549,8.466,1.158,8.466-2.446c3.494,0-1.44-8.206,2.166-8.206
		C570.306-247.582,570.306-244.079,570.306-240.445z"/>
	<path fill="#999999" d="M545.432-251.138c3.59,0,7.061,0,10.632,0c0,3.549-8.466-1.158-8.466,2.446
		c-3.494,0,1.44,8.206-2.166,8.206C545.432-244.001,545.432-247.505,545.432-251.138z"/>
	<path d="M556.064-240.486c-3.59,0-7.061,0-10.632,0c0-3.549,8.466,1.158,8.466-2.446c3.494,0-1.44-8.206,2.166-8.206
		C556.064-247.623,556.064-244.119,556.064-240.486z"/>
	<path fill="#999999" d="M531.511-251.138c3.59,0,7.061,0,10.632,0c0,3.549-8.466-1.158-8.466,2.446
		c-3.494,0,1.44,8.206-2.166,8.206C531.511-244.001,531.511-247.505,531.511-251.138z"/>
	<path d="M542.144-240.486c-3.59,0-7.061,0-10.632,0c0-3.549,8.466,1.158,8.466-2.446c3.494,0-1.44-8.206,2.166-8.206
		C542.144-247.623,542.144-244.119,542.144-240.486z"/>
	<path fill="#999999" d="M516.919-251.138c3.59,0,7.061,0,10.632,0c0,3.549-8.466-1.158-8.466,2.446
		c-3.494,0,1.44,8.206-2.166,8.206C516.919-244.001,516.919-247.505,516.919-251.138z"/>
	<path d="M527.552-240.486c-3.59,0-7.061,0-10.632,0c0-3.549,8.466,1.158,8.466-2.446c3.494,0-1.44-8.206,2.166-8.206
		C527.552-247.623,527.552-244.119,527.552-240.486z"/>
	<path fill="#999999" d="M502.75-251.098c3.59,0,7.061,0,10.632,0c0,3.549-8.466-1.158-8.466,2.446c-3.494,0,1.44,8.206-2.166,8.206
		C502.75-243.961,502.75-247.464,502.75-251.098z"/>
	<path d="M513.382-240.445c-3.59,0-7.061,0-10.632,0c0-3.549,8.466,1.158,8.466-2.446c3.494,0-1.44-8.206,2.166-8.206
		C513.382-247.582,513.382-244.079,513.382-240.445z"/>
	<path fill="#999999" d="M502.75-265.416c3.59,0,7.061,0,10.632,0c0,3.549-8.466-1.158-8.466,2.446c-3.494,0,1.44,8.206-2.166,8.206
		C502.75-258.279,502.75-261.783,502.75-265.416z"/>
	<path d="M513.382-254.764c-3.59,0-7.061,0-10.632,0c0-3.549,8.466,1.158,8.466-2.446c3.494,0-1.44-8.206,2.166-8.206
		C513.382-261.901,513.382-258.397,513.382-254.764z"/>
	<path fill="#999999" d="M516.956-265.416c3.59,0,7.061,0,10.632,0c0,3.549-8.466-1.158-8.466,2.446
		c-3.494,0,1.44,8.206-2.166,8.206C516.956-258.279,516.956-261.783,516.956-265.416z"/>
	<path d="M527.589-254.764c-3.59,0-7.061,0-10.632,0c0-3.549,8.466,1.158,8.466-2.446c3.494,0-1.44-8.206,2.166-8.206
		C527.589-261.901,527.589-258.397,527.589-254.764z"/>
	<path fill="#999999" d="M531.511-265.377c3.59,0,7.061,0,10.632,0c0,3.549-8.466-1.158-8.466,2.446
		c-3.494,0,1.44,8.206-2.166,8.206C531.511-258.24,531.511-261.743,531.511-265.377z"/>
	<path d="M542.144-254.724c-3.59,0-7.061,0-10.632,0c0-3.549,8.466,1.158,8.466-2.446c3.494,0-1.44-8.206,2.166-8.206
		C542.144-261.861,542.144-258.357,542.144-254.724z"/>
	<path fill="#999999" d="M488.437-265.416c3.59,0,7.061,0,10.632,0c0,3.549-8.466-1.158-8.466,2.446
		c-3.494,0,1.44,8.206-2.166,8.206C488.437-258.279,488.437-261.783,488.437-265.416z"/>
	<path d="M499.069-254.764c-3.59,0-7.061,0-10.632,0c0-3.549,8.466,1.158,8.466-2.446c3.494,0-1.44-8.206,2.166-8.206
		C499.069-261.901,499.069-258.397,499.069-254.764z"/>
	<path fill="#999999" d="M488.437-279.635c3.59,0,7.061,0,10.632,0c0,3.549-8.466-1.158-8.466,2.446
		c-3.494,0,1.44,8.206-2.166,8.206C488.437-272.498,488.437-276.002,488.437-279.635z"/>
	<path d="M499.069-268.982c-3.59,0-7.061,0-10.632,0c0-3.549,8.466,1.158,8.466-2.446c3.494,0-1.44-8.206,2.166-8.206
		C499.069-276.119,499.069-272.616,499.069-268.982z"/>
	<path fill="#999999" d="M573.895-279.612c3.59,0,7.061,0,10.632,0c0,3.549-8.466-1.158-8.466,2.446
		c-3.494,0,1.44,8.206-2.166,8.206C573.895-272.475,573.895-275.979,573.895-279.612z"/>
	<path d="M584.527-268.96c-3.59,0-7.061,0-10.632,0c0-3.549,8.466,1.158,8.466-2.446c3.494,0-1.44-8.206,2.166-8.206
		C584.527-276.097,584.527-272.593,584.527-268.96z"/>
	<path fill="#999999" d="M488.437-279.612c3.59,0,7.061,0,10.632,0c0,3.549-8.466-1.158-8.466,2.446
		c-3.494,0,1.44,8.206-2.166,8.206C488.437-272.475,488.437-275.979,488.437-279.612z"/>
	<path d="M499.069-268.96c-3.59,0-7.061,0-10.632,0c0-3.549,8.466,1.158,8.466-2.446c3.494,0-1.44-8.206,2.166-8.206
		C499.069-276.097,499.069-272.593,499.069-268.96z"/>
	<path fill="#999999" d="M502.675-279.635c3.59,0,7.061,0,10.632,0c0,3.549-8.466-1.158-8.466,2.446
		c-3.494,0,1.44,8.206-2.166,8.206C502.675-272.498,502.675-276.002,502.675-279.635z"/>
	<path d="M513.308-268.982c-3.59,0-7.061,0-10.632,0c0-3.549,8.466,1.158,8.466-2.446c3.494,0-1.44-8.206,2.166-8.206
		C513.308-276.119,513.308-272.616,513.308-268.982z"/>
	<path fill="#999999" d="M516.919-279.635c3.59,0,7.061,0,10.632,0c0,3.549-8.466-1.158-8.466,2.446
		c-3.494,0,1.44,8.206-2.166,8.206C516.919-272.498,516.919-276.002,516.919-279.635z"/>
	<path d="M527.552-268.982c-3.59,0-7.061,0-10.632,0c0-3.549,8.466,1.158,8.466-2.446c3.494,0-1.44-8.206,2.166-8.206
		C527.552-276.119,527.552-272.616,527.552-268.982z"/>
	<path fill="#999999" d="M531.511-279.612c3.59,0,7.061,0,10.632,0c0,3.549-8.466-1.158-8.466,2.446
		c-3.494,0,1.44,8.206-2.166,8.206C531.511-272.475,531.511-275.979,531.511-279.612z"/>
	<path d="M542.144-268.96c-3.59,0-7.061,0-10.632,0c0-3.549,8.466,1.158,8.466-2.446c3.494,0-1.44-8.206,2.166-8.206
		C542.144-276.097,542.144-272.593,542.144-268.96z"/>
	<path fill="#999999" d="M545.407-279.612c3.59,0,7.061,0,10.632,0c0,3.549-8.466-1.158-8.466,2.446
		c-3.494,0,1.44,8.206-2.166,8.206C545.407-272.475,545.407-275.979,545.407-279.612z"/>
	<path d="M556.04-268.96c-3.59,0-7.061,0-10.632,0c0-3.549,8.466,1.158,8.466-2.446c3.494,0-1.44-8.206,2.166-8.206
		C556.04-276.097,556.04-272.593,556.04-268.96z"/>
	<path fill="#999999" d="M545.432-265.377c3.59,0,7.061,0,10.632,0c0,3.549-8.466-1.158-8.466,2.446
		c-3.494,0,1.44,8.206-2.166,8.206C545.432-258.24,545.432-261.743,545.432-265.377z"/>
	<path d="M556.064-254.724c-3.59,0-7.061,0-10.632,0c0-3.549,8.466,1.158,8.466-2.446c3.494,0-1.44-8.206,2.166-8.206
		C556.064-261.861,556.064-258.357,556.064-254.724z"/>
	<path fill="#999999" d="M559.673-265.416c3.59,0,7.061,0,10.632,0c0,3.549-8.466-1.158-8.466,2.446
		c-3.494,0,1.44,8.206-2.166,8.206C559.673-258.279,559.673-261.783,559.673-265.416z"/>
	<path d="M570.306-254.764c-3.59,0-7.061,0-10.632,0c0-3.549,8.466,1.158,8.466-2.446c3.494,0-1.44-8.206,2.166-8.206
		C570.306-261.901,570.306-258.397,570.306-254.764z"/>
	<path fill="#999999" d="M559.673-279.612c3.59,0,7.061,0,10.632,0c0,3.549-8.466-1.158-8.466,2.446
		c-3.494,0,1.44,8.206-2.166,8.206C559.673-272.475,559.673-275.979,559.673-279.612z"/>
	<path d="M570.306-268.96c-3.59,0-7.061,0-10.632,0c0-3.549,8.466,1.158,8.466-2.446c3.494,0-1.44-8.206,2.166-8.206
		C570.306-276.097,570.306-272.593,570.306-268.96z"/>
</g>
<g id="Layer_1">
	<g>
		<path fill="#C6C6C6" d="M146.303,69.52c0.308,28.396-23.444,51.869-51.905,51.792c-28.343-0.077-51.772-23.551-51.685-51.998
			c0.087-28.349,23.595-51.809,52.105-51.663C123.07,17.795,146.649,41.186,146.303,69.52z M143.215,69.516
			C143.233,42.67,121.443,20.839,94.6,20.81c-26.846-0.03-48.686,21.75-48.727,48.594c-0.041,26.88,21.779,48.741,48.657,48.749
			C121.375,118.159,143.196,96.36,143.215,69.516z"/>
		<path fill="#C6C6C6" d="M77.799,37.443c-2.59,0-5.127,0-7.713,0c0-2.571,0-5.108,0-7.717c2.537,0,5.093,0,7.713,0
			C77.799,32.255,77.799,34.812,77.799,37.443z"/>
		<path fill="#C6C6C6" d="M111.268,68.357c0-2.602,0-5.116,0-7.693c2.586,0,5.142,0,7.746,0c0,2.554,0,5.092,0,7.693
			C116.454,68.357,113.897,68.357,111.268,68.357z"/>
		<path fill="#C6C6C6" d="M90.667,37.419c0-2.599,0-5.119,0-7.701c2.586,0,5.146,0,7.752,0c0,2.559,0,5.1,0,7.701
			C95.858,37.419,93.297,37.419,90.667,37.419z"/>
		<path fill="#C6C6C6" d="M49.465,68.352c0-2.586,0-5.101,0-7.683c2.579,0,5.135,0,7.743,0c0,2.54,0,5.077,0,7.683
			C54.659,68.352,52.103,68.352,49.465,68.352z"/>
		<path fill="#C6C6C6" d="M119.021,29.7c0,2.609,0,5.15,0,7.735c-2.581,0-5.122,0-7.723,0c0-2.568,0-5.128,0-7.735
			C113.863,29.7,116.403,29.7,119.021,29.7z"/>
		<path fill="#C6C6C6" d="M77.816,58.048c-2.605,0-5.145,0-7.732,0c0-2.579,0-5.118,0-7.72c2.567,0,5.126,0,7.732,0
			C77.816,52.89,77.816,55.429,77.816,58.048z"/>
		<path fill="#C6C6C6" d="M70.067,47.732c0-2.592,0-5.105,0-7.684c2.584,0,5.139,0,7.745,0c0,2.545,0,5.082,0,7.684
			C75.257,47.732,72.699,47.732,70.067,47.732z"/>
		<path fill="#C6C6C6" d="M98.416,60.674c0,2.588,0,5.123,0,7.703c-2.584,0-5.119,0-7.715,0c0-2.563,0-5.096,0-7.703
			C93.24,60.674,95.796,60.674,98.416,60.674z"/>
		<path fill="#C6C6C6" d="M90.669,58.027c0-2.599,0-5.116,0-7.697c2.586,0,5.143,0,7.749,0c0,2.56,0,5.098,0,7.697
			C95.855,58.027,93.297,58.027,90.669,58.027z"/>
		<path fill="#C6C6C6" d="M70.062,68.349c0-2.577,0-5.093,0-7.679c2.578,0,5.135,0,7.747,0c0,2.531,0,5.069,0,7.679
			C75.264,68.349,72.708,68.349,70.062,68.349z"/>
		<path fill="#C6C6C6" d="M111.315,50.297c2.595,0,5.111,0,7.687,0c0,2.59,0,5.148,0,7.748c-2.567,0-5.106,0-7.687,0
			C111.315,55.455,111.315,52.877,111.315,50.297z"/>
		<path fill="#C6C6C6" d="M131.896,60.639c2.596,0,5.132,0,7.718,0c0,2.574,0,5.11,0,7.714c-2.554,0-5.108,0-7.718,0
			C131.896,65.8,131.896,63.268,131.896,60.639z"/>
		<path fill="#C6C6C6" d="M49.499,70.928c2.569,0,5.104,0,7.7,0c0,2.577,0,5.132,0,7.73c-2.568,0-5.104,0-7.7,0
			C49.499,76.088,49.499,73.533,49.499,70.928z"/>
		<path fill="#C6C6C6" d="M70.079,78.654c0-2.598,0-5.134,0-7.722c2.578,0,5.115,0,7.717,0c0,2.563,0,5.119,0,7.722
			C75.243,78.654,72.705,78.654,70.079,78.654z"/>
		<path fill="#C6C6C6" d="M90.703,70.931c2.563,0,5.098,0,7.697,0c0,2.569,0,5.124,0,7.724c-2.559,0-5.096,0-7.697,0
			C90.703,76.094,90.703,73.538,90.703,70.931z"/>
		<path fill="#C6C6C6" d="M119.02,70.933c0,2.601,0,5.138,0,7.721c-2.578,0-5.116,0-7.718,0c0-2.557,0-5.113,0-7.721
			C113.86,70.933,116.395,70.933,119.02,70.933z"/>
		<path fill="#C6C6C6" d="M139.603,78.658c-2.567,0-5.103,0-7.701,0c0-2.571,0-5.125,0-7.728c2.572,0,5.106,0,7.701,0
			C139.603,73.506,139.603,76.06,139.603,78.658z"/>
		<path fill="#C6C6C6" d="M70.06,88.969c0-2.587,0-5.105,0-7.69c2.581,0,5.141,0,7.752,0c0,2.541,0,5.082,0,7.69
			C75.264,88.969,72.704,88.969,70.06,88.969z"/>
		<path fill="#C6C6C6" d="M90.686,81.257c2.615,0,5.154,0,7.735,0c0,2.582,0,5.121,0,7.72c-2.573,0-5.131,0-7.735,0
			C90.686,86.404,90.686,83.867,90.686,81.257z"/>
		<path fill="#C6C6C6" d="M119.015,101.888c0,2.591,0,5.13,0,7.712c-2.585,0-5.124,0-7.72,0c0-2.564,0-5.102,0-7.712
			C113.834,101.888,116.393,101.888,119.015,101.888z"/>
		<path fill="#C6C6C6" d="M111.266,88.973c0-2.601,0-5.118,0-7.697c2.586,0,5.144,0,7.749,0c0,2.555,0,5.094,0,7.697
			C116.454,88.973,113.896,88.973,111.266,88.973z"/>
		<path fill="#C6C6C6" d="M70.087,91.56c2.564,0,5.105,0,7.71,0c0,2.544,0,5.078,0,7.681c-2.542,0-5.101,0-7.71,0
			C70.087,96.691,70.087,94.153,70.087,91.56z"/>
		<path fill="#C6C6C6" d="M70.086,101.854c2.6,0,5.141,0,7.728,0c0,2.577,0,5.118,0,7.723c-2.558,0-5.118,0-7.728,0
			C70.086,107.021,70.086,104.482,70.086,101.854z"/>
		<path fill="#C6C6C6" d="M98.423,101.874c0,2.569,0,5.109,0,7.708c-2.574,0-5.133,0-7.738,0c0-2.573,0-5.112,0-7.708
			C93.262,101.874,95.822,101.874,98.423,101.874z"/>
		<path fill="#C6C6C6" d="M88.098,68.368c-2.584,0-5.117,0-7.7,0c0-2.588,0-5.123,0-7.713c2.566,0,5.101,0,7.7,0
			C88.098,63.221,88.098,65.777,88.098,68.368z"/>
		<path fill="#C6C6C6" d="M101.013,60.645c2.581,0,5.116,0,7.698,0c0,2.581,0,5.118,0,7.715c-2.571,0-5.101,0-7.698,0
			C101.013,65.807,101.013,63.273,101.013,60.645z"/>
		<path fill="#C6C6C6" d="M121.59,68.364c0-2.603,0-5.118,0-7.698c2.578,0,5.134,0,7.733,0c0,2.571,0,5.106,0,7.698
			C126.742,68.364,124.211,68.364,121.59,68.364z"/>
		<path fill="#C6C6C6" d="M80.416,29.682c2.591,0,5.104,0,7.681,0c0,2.58,0,5.139,0,7.748c-2.548,0-5.08,0-7.681,0
			C80.416,34.869,80.416,32.314,80.416,29.682z"/>
		<path fill="#C6C6C6" d="M108.68,37.434c-2.624,0-5.135,0-7.689,0c0-2.581,0-5.118,0-7.718c2.544,0,5.078,0,7.689,0
			C108.68,32.272,108.68,34.849,108.68,37.434z"/>
		<path fill="#C6C6C6" d="M59.799,78.652c0-2.584,0-5.12,0-7.713c2.571,0,5.105,0,7.702,0c0,2.573,0,5.132,0,7.713
			C64.92,78.652,62.383,78.652,59.799,78.652z"/>
		<path fill="#C6C6C6" d="M67.512,47.759c-2.596,0-5.105,0-7.687,0c0-2.566,6.121,0.837,6.121-1.769
			c2.526,0-1.041-5.933,1.566-5.933C67.512,42.599,67.512,45.132,67.512,47.759z"/>
		<path fill="#C6C6C6" d="M88.102,78.668c-2.573,0-5.087,0-7.678,0c0-2.57,0-5.123,0-7.732c2.551,0,5.085,0,7.678,0
			C88.102,73.497,88.102,76.033,88.102,78.668z"/>
		<path fill="#C6C6C6" d="M88.1,47.742c-2.595,0-5.127,0-7.704,0c0-2.588,0-5.12,0-7.707c2.578,0,5.11,0,7.704,0
			C88.1,42.587,88.1,45.118,88.1,47.742z"/>
		<path fill="#C6C6C6" d="M108.692,78.656c-2.569,0-5.105,0-7.694,0c0-2.579,0-5.113,0-7.712c2.559,0,5.093,0,7.694,0
			C108.692,73.502,108.692,76.062,108.692,78.656z"/>
		<path fill="#C6C6C6" d="M98.416,40.047c0,2.55,0,5.086,0,7.686c-2.559,0-5.115,0-7.723,0c0-2.559,0-5.089,0-7.686
			C93.259,40.047,95.813,40.047,98.416,40.047z"/>
		<path fill="#C6C6C6" d="M129.314,78.67c-2.587,0-5.101,0-7.686,0c0-2.576,0-5.131,0-7.737c2.561,0,5.094,0,7.686,0
			C129.314,73.506,129.314,76.041,129.314,78.67z"/>
		<path fill="#C6C6C6" d="M101.002,47.745c0-2.575,0-5.107,0-7.701c2.548,0,5.078,0,7.683,0c0,2.551,0,5.1,0,7.701
			C106.12,47.745,103.589,47.745,101.002,47.745z"/>
		<path fill="#C6C6C6" d="M59.8,88.986c0-2.589,0-5.127,0-7.719c2.566,0,5.105,0,7.705,0c0,2.566,0,5.128,0,7.719
			C64.921,88.986,62.385,88.986,59.8,88.986z"/>
		<path fill="#C6C6C6" d="M111.263,47.722c0-2.621,0-5.106,0-7.666c2.578,0,5.132,0,7.742,0c0,2.522,0,5.056,0,7.666
			C116.441,47.722,113.865,47.722,111.263,47.722z"/>
		<path fill="#C6C6C6" d="M88.096,88.99c-2.612,0-5.126,0-7.693,0c0-2.585,0-5.123,0-7.719c2.55,0,5.088,0,7.693,0
			C88.096,83.826,88.096,86.386,88.096,88.99z"/>
		<path fill="#C6C6C6" d="M121.607,47.718c0-2.553,0-5.086,0-7.678c2.561,0,5.093,0,7.695,0c0,2.539,0,5.069,0,7.678
			C126.763,47.718,124.211,47.718,121.607,47.718z"/>
		<path fill="#C6C6C6" d="M59.798,58.041c0-2.585,0-5.123,0-7.719c2.571,0,5.109,0,7.707,0c0,2.568,0,5.133,0,7.719
			C64.924,58.041,62.384,58.041,59.798,58.041z"/>
		<path fill="#C6C6C6" d="M59.78,47.739c0-2.585,0-5.123,0-7.719c2.571,0,5.109,0,7.707,0c0,2.568,0,5.133,0,7.719
			C64.905,47.739,62.365,47.739,59.78,47.739z"/>
		<path fill="#C6C6C6" d="M88.113,50.309c0,2.593,0,5.134,0,7.726c-2.568,0-5.103,0-7.702,0c0-2.57,0-5.126,0-7.726
			C82.977,50.309,85.491,50.309,88.113,50.309z"/>
		<path fill="#C6C6C6" d="M121.607,88.989c0-2.587,0-5.125,0-7.72c2.558,0,5.097,0,7.702,0c0,2.56,0,5.12,0,7.72
			C126.728,88.989,124.192,88.989,121.607,88.989z"/>
		<path fill="#C6C6C6" d="M59.813,91.548c2.604,0,5.117,0,7.691,0c0,2.579,0,5.114,0,7.705c-2.558,0-5.094,0-7.691,0
			C59.813,96.696,59.813,94.161,59.813,91.548z"/>
		<path fill="#C6C6C6" d="M108.675,58.057c-2.563,0-5.079,0-7.663,0c0-2.586,0-5.141,0-7.745c2.552,0,5.066,0,7.663,0
			C108.675,52.861,108.675,55.417,108.675,58.057z"/>
		<path fill="#C6C6C6" d="M80.409,91.549c2.607,0,5.119,0,7.692,0c0,2.579,0,5.115,0,7.706c-2.56,0-5.096,0-7.692,0
			C80.409,96.694,80.409,94.16,80.409,91.549z"/>
		<path fill="#C6C6C6" d="M90.689,91.559c2.572,0,5.111,0,7.713,0c0,2.55,0,5.083,0,7.683c-2.548,0-5.106,0-7.713,0
			C90.689,96.685,90.689,94.149,90.689,91.559z"/>
		<path fill="#C6C6C6" d="M108.693,88.989c-2.614,0-5.128,0-7.694,0c0-2.585,0-5.124,0-7.719c2.551,0,5.09,0,7.694,0
			C108.693,83.827,108.693,86.387,108.693,88.989z"/>
		<path fill="#C6C6C6" d="M111.278,99.243c0-2.602,0-5.116,0-7.684c2.58,0,5.119,0,7.721,0c0,2.55,0,5.084,0,7.684
			C116.451,99.243,113.893,99.243,111.278,99.243z"/>
		<path fill="#C6C6C6" d="M121.63,91.55c2.558,0,5.073,0,7.666,0c0,2.548,0,5.081,0,7.686c-2.525,0-5.058,0-7.666,0
			C121.63,96.725,121.63,94.192,121.63,91.55z"/>
		<path fill="#C6C6C6" d="M129.312,50.32c0,2.578,0,5.141,0,7.72c-2.591,0-5.13,0-7.712,0c0-2.587,0-5.126,0-7.72
			C124.177,50.32,126.714,50.32,129.312,50.32z"/>
		<path fill="#C6C6C6" d="M88.114,101.889c0,2.549,0,5.091,0,7.693c-2.564,0-5.097,0-7.698,0c0-2.545,0-5.083,0-7.693
			C82.951,101.889,85.509,101.889,88.114,101.889z"/>
		<path fill="#C6C6C6" d="M59.789,68.361c0-2.595,0-5.11,0-7.693c2.57,0,5.126,0,7.729,0c0,2.56,0,5.096,0,7.693
			C64.945,68.361,62.415,68.361,59.789,68.361z"/>
		<path fill="#C6C6C6" d="M101.005,101.853c2.574,0,5.091,0,7.681,0c0,2.567,0,5.126,0,7.737c-2.551,0-5.086,0-7.681,0
			C101.005,107.022,101.005,104.482,101.005,101.853z"/>
		<path fill="#C6C6C6" d="M101,99.257c0-2.586,0-5.12,0-7.704c2.569,0,5.084,0,7.679,0c0,2.56,0,5.118,0,7.704
			C106.118,99.257,103.579,99.257,101,99.257z"/>
	</g>
	<path d="M59.825,40.057c2.596,0,5.105,0,7.687,0c0,2.566-6.121-0.837-6.121,1.769c-2.526,0,1.041,5.933-1.566,5.933
		C59.825,45.217,59.825,42.684,59.825,40.057z"/>
	<ellipse fill="#C6C6C6" cx="95.187" cy="69.319" rx="48.476" ry="46.946"/>
	<circle fill="#F7F7F7" cx="65.095" cy="53.139" r="0.731"/>
	<circle fill="#F7F7F7" cx="65.095" cy="43.177" r="0.731"/>
	<circle fill="#F7F7F7" cx="75.989" cy="52.74" r="0.731"/>
	<circle fill="#F7F7F7" cx="75.989" cy="42.778" r="0.731"/>
	<circle fill="#F7F7F7" cx="85.521" cy="52.94" r="0.731"/>
	<circle fill="#F7F7F7" cx="85.521" cy="42.977" r="0.731"/>
	<circle fill="#F7F7F7" cx="96.415" cy="52.54" r="0.731"/>
	<circle fill="#F7F7F7" cx="96.415" cy="42.578" r="0.731"/>
	<circle fill="#F7F7F7" cx="105.882" cy="52.408" r="0.731"/>
	<circle fill="#F7F7F7" cx="105.882" cy="42.446" r="0.731"/>
	<circle fill="#F7F7F7" cx="75.29" cy="31.912" r="0.731"/>
	<circle fill="#F7F7F7" cx="86.185" cy="31.513" r="0.731"/>
	<circle fill="#F7F7F7" cx="95.716" cy="31.712" r="0.731"/>
	<circle fill="#F7F7F7" cx="106.611" cy="31.313" r="0.731"/>
	<circle fill="#F7F7F7" cx="116.078" cy="31.181" r="0.731"/>
	<circle fill="#F7F7F7" cx="75.192" cy="103.351" r="0.731"/>
	<circle fill="#F7F7F7" cx="86.086" cy="102.952" r="0.731"/>
	<circle fill="#F7F7F7" cx="95.618" cy="103.151" r="0.731"/>
	<circle fill="#F7F7F7" cx="106.512" cy="102.752" r="0.731"/>
	<circle fill="#F7F7F7" cx="115.979" cy="102.62" r="0.731"/>
	<circle fill="#F7F7F7" cx="116.776" cy="52.009" r="0.731"/>
	<circle fill="#F7F7F7" cx="116.776" cy="42.046" r="0.731"/>
	<circle fill="#F7F7F7" cx="127.077" cy="52.009" r="0.731"/>
	<circle fill="#F7F7F7" cx="127.077" cy="42.046" r="0.731"/>
	<circle fill="#F7F7F7" cx="54.378" cy="73.528" r="0.731"/>
	<circle fill="#F7F7F7" cx="54.378" cy="63.565" r="0.731"/>
	<circle fill="#F7F7F7" cx="65.272" cy="73.129" r="0.731"/>
	<circle fill="#F7F7F7" cx="65.272" cy="63.166" r="0.731"/>
	<circle fill="#F7F7F7" cx="74.969" cy="73.557" r="0.731"/>
	<circle fill="#F7F7F7" cx="74.969" cy="63.595" r="0.731"/>
	<circle fill="#F7F7F7" cx="85.863" cy="73.158" r="0.731"/>
	<circle fill="#F7F7F7" cx="85.863" cy="63.195" r="0.731"/>
	<circle fill="#F7F7F7" cx="95.585" cy="73.528" r="0.731"/>
	<circle fill="#F7F7F7" cx="95.585" cy="63.565" r="0.731"/>
	<circle fill="#F7F7F7" cx="106.48" cy="73.129" r="0.731"/>
	<circle fill="#F7F7F7" cx="106.48" cy="63.166" r="0.731"/>
	<circle fill="#F7F7F7" cx="116.183" cy="73.956" r="0.731"/>
	<circle fill="#F7F7F7" cx="116.183" cy="63.994" r="0.731"/>
	<circle fill="#F7F7F7" cx="127.077" cy="73.557" r="0.731"/>
	<circle fill="#F7F7F7" cx="127.077" cy="63.595" r="0.731"/>
	<circle fill="#F7F7F7" cx="64.726" cy="93.67" r="0.731"/>
	<circle fill="#F7F7F7" cx="64.726" cy="83.708" r="0.731"/>
	<circle fill="#F7F7F7" cx="75.62" cy="93.271" r="0.731"/>
	<circle fill="#F7F7F7" cx="75.62" cy="83.308" r="0.731"/>
	<circle fill="#F7F7F7" cx="85.521" cy="93.654" r="0.731"/>
	<circle fill="#F7F7F7" cx="85.521" cy="83.691" r="0.731"/>
	<circle fill="#F7F7F7" cx="96.415" cy="93.254" r="0.731"/>
	<circle fill="#F7F7F7" cx="96.415" cy="83.292" r="0.731"/>
	<circle fill="#F7F7F7" cx="106.48" cy="93.654" r="0.731"/>
	<circle fill="#F7F7F7" cx="106.48" cy="83.691" r="0.731"/>
	<circle fill="#F7F7F7" cx="117.374" cy="93.254" r="0.731"/>
	<circle fill="#F7F7F7" cx="117.374" cy="83.292" r="0.731"/>
	<circle fill="#F7F7F7" cx="137.609" cy="73.328" r="0.731"/>
	<circle fill="#F7F7F7" cx="137.609" cy="63.366" r="0.731"/>
	<g>
		<path fill="#C6C6C6" stroke="#FFFFFF" stroke-miterlimit="10" d="M116.789,122.628C99.704,122.701,85.693,108.767,85.6,91.61
			c-0.092-17.009,13.893-31.153,30.868-31.219c17.233-0.067,31.397,13.762,31.47,30.727
			C148.013,108.584,134.204,122.553,116.789,122.628z M118.683,104.627c0.002,0,0.004,0,0.006,0c0,4.055-0.008,8.11,0.004,12.165
			c0.004,1.507,0.529,1.938,1.986,1.7c0.313-0.051,0.629-0.092,0.942-0.143c1.703-0.278,1.912-0.519,1.913-2.231
			c0.003-4.85,0.002-9.7,0.007-14.55c0.002-1.822,0.687-2.507,2.519-2.522c1.153-0.009,2.306-0.022,3.459,0.006
			c0.892,0.021,1.597-0.104,2.307-0.851c1.485-1.564,4.002-1.444,5.443,0.065c1.439,1.507,1.454,3.931,0.035,5.395
			c-1.452,1.498-3.948,1.7-5.352,0.187c-0.851-0.917-1.733-0.936-2.762-0.9c-1.46,0.05-1.73,0.309-1.735,1.773
			c-0.01,3.021-0.007,6.043-0.003,9.064c0.003,2.156,0.746,2.608,2.61,1.518c7.423-4.342,12-10.709,13.568-19.195
			c0.263-1.423-0.141-1.927-1.571-1.931c-3.896-0.012-7.792-0.031-11.688,0.021c-0.517,0.007-1.034,0.399-1.542,0.63
			c-0.913,0.416-1.787,1.089-2.736,1.217c-1.745,0.234-3.28-1.014-3.828-2.765c-0.501-1.602,0.122-3.329,1.544-4.28
			c1.521-1.017,3.313-0.862,4.743,0.302c0.511,0.416,1.176,0.895,1.78,0.907c3.974,0.079,7.95,0.045,11.926,0.034
			c1.393-0.004,1.731-0.41,1.577-1.841c-0.409-3.808-1.613-7.349-3.529-10.665c-0.494-0.855-1.085-1.231-2.095-1.22
			c-4.055,0.046-8.11,0.023-12.165,0.018c-1.821-0.002-2.498-0.692-2.503-2.534c-0.005-2.028,0.014-4.055-0.006-6.083
			c-0.027-2.743,0.508-2.908-2.908-3.388c-1.341-0.188-1.919,0.196-1.925,1.515c-0.022,4.572-0.022,9.144,0.006,13.715
			c0.008,1.359,0.381,1.673,1.728,1.675c3.18,0.007,6.361,0.037,9.541-0.024c0.553-0.011,1.22-0.287,1.627-0.665
			c1.682-1.561,4.046-1.662,5.575-0.14c1.521,1.514,1.569,3.986,0.106,5.472c-1.642,1.667-3.982,1.6-5.736-0.089
			c-0.348-0.336-0.93-0.599-1.407-0.605c-4.214-0.05-8.428-0.031-12.642-0.039c-2.037-0.004-2.641-0.605-2.641-2.605
			c0-5.128,0.004-10.257,0.005-15.385c0.001-3.036-0.27-3.208-3.232-2.623c-1.231,0.243-1.623,0.82-1.608,2.026
			c0.052,4.015,0.03,8.03,0.007,12.046c-0.004,0.755,0.159,1.313,0.757,1.871c1.645,1.534,1.595,3.918-0.006,5.515
			c-1.505,1.502-3.921,1.461-5.452-0.092c-1.557-1.578-1.476-3.933,0.09-5.556c0.382-0.397,0.662-1.066,0.674-1.617
			c0.064-3.06-0.053-6.125,0.054-9.182c0.112-3.206-1.04-3.04-3.185-1.766c-1.11,0.659-1.63,1.382-1.6,2.737
			c0.089,4.013,0.033,8.03,0.022,12.045c-0.005,1.903-0.697,2.588-2.58,2.591c-2.385,0.004-4.771,0.026-7.156-0.01
			c-1.008-0.015-1.514,0.364-1.7,1.388c-0.67,3.693-0.536,7.351,0.286,11.002c0.211,0.937,0.737,1.32,1.679,1.316
			c3.975-0.018,7.951,0.009,11.926-0.035c0.447-0.005,0.996-0.254,1.317-0.572c1.66-1.649,4.092-1.795,5.639-0.27
			c1.572,1.549,1.587,4.021,0.033,5.554c-1.635,1.613-3.928,1.533-5.625-0.168c-0.259-0.26-0.631-0.574-0.955-0.578
			c-3.418-0.039-6.838-0.055-10.255,0.032c-0.396,0.01-1.053,0.644-1.11,1.056c-0.204,1.464,2.038,3.751,3.535,3.754
			c3.618,0.006,7.235,0.006,10.853,0.008c2.212,0.001,2.767,0.544,2.769,2.711c0.001,1.511,0.003,3.021,0.003,4.532
			c-0.001,3.033-0.002,3.033,3.003,3.449c1.241,0.172,1.804-0.273,1.806-1.552c0.014-7.037,0.014-14.073-0.001-21.11
			c-0.003-1.334-0.371-1.673-1.731-1.679c-3.459-0.014-6.918,0.005-10.376-0.018c-1.043-0.007-1.9,0.082-2.759,0.938
			c-1.564,1.558-3.955,1.3-5.399-0.333c-1.361-1.54-1.252-3.987,0.242-5.394c1.549-1.46,3.902-1.351,5.491,0.139
			c0.428,0.402,1.137,0.7,1.722,0.707c4.73,0.057,9.461,0.029,14.192,0.036c1.766,0.002,2.444,0.677,2.447,2.447
			C118.688,96.676,118.683,100.652,118.683,104.627z M130.899,72.624c0-0.003,0-0.006,0-0.009c0.792,0,1.598,0.086,2.372-0.034
			c0.433-0.067,1.033-0.402,1.155-0.754c0.128-0.373-0.075-1.112-0.389-1.342c-1.528-1.12-3.1-2.195-4.74-3.141
			c-0.963-0.556-1.783,0.046-1.834,1.193c-0.035,0.791-0.022,1.585-0.013,2.377c0.016,1.407,0.334,1.707,1.785,1.71
			C129.789,72.625,130.344,72.624,130.899,72.624z M97.488,77.901c0-0.672,0.108-1.368-0.033-2.01
			c-0.119-0.545-0.427-1.32-0.831-1.456c-0.408-0.137-1.233,0.243-1.535,0.649c-0.938,1.264-1.782,2.611-2.537,3.993
			c-0.892,1.633-0.424,2.347,1.408,2.36C97.683,81.465,97.522,81.691,97.488,77.901z M103.429,111.652c0,0.003,0,0.006,0,0.009
			c-0.475,0-0.991-0.118-1.414,0.031c-0.469,0.166-1.098,0.507-1.204,0.896c-0.105,0.387,0.245,1.033,0.587,1.375
			c0.464,0.464,1.086,0.794,1.685,1.093c0.774,0.388,1.613,1.376,2.426,0.614c0.501-0.469,0.538-1.545,0.585-2.359
			c0.072-1.254-0.34-1.609-1.597-1.657C104.142,111.641,103.785,111.652,103.429,111.652z"/>
		<path fill="#959595" stroke="#FFFFFF" stroke-miterlimit="10" d="M118.683,104.627c0-3.976,0.006-7.951-0.003-11.927
			c-0.004-1.77-0.682-2.444-2.447-2.447c-4.731-0.006-9.462,0.021-14.192-0.036c-0.584-0.007-1.293-0.306-1.722-0.707
			c-1.589-1.49-3.942-1.599-5.491-0.139c-1.493,1.407-1.603,3.855-0.242,5.394c1.444,1.633,3.835,1.891,5.399,0.333
			c0.859-0.856,1.716-0.945,2.759-0.938c3.459,0.023,6.917,0.004,10.376,0.018c1.36,0.006,1.729,0.345,1.731,1.679
			c0.015,7.037,0.015,14.073,0.001,21.11c-0.003,1.28-0.565,1.724-1.806,1.552c-3.005-0.416-3.004-0.416-3.003-3.449
			c0.001-1.511-0.002-3.021-0.003-4.532c-0.002-2.166-0.556-2.709-2.769-2.711c-3.618-0.002-7.235-0.002-10.853-0.008
			c-1.497-0.003-3.739-2.29-3.535-3.754c0.057-0.411,0.715-1.045,1.11-1.056c3.417-0.087,6.836-0.071,10.255-0.032
			c0.323,0.004,0.695,0.318,0.955,0.578c1.698,1.701,3.99,1.781,5.625,0.168c1.553-1.533,1.539-4.005-0.033-5.554
			c-1.547-1.525-3.98-1.379-5.639,0.27c-0.32,0.318-0.87,0.567-1.317,0.572c-3.975,0.045-7.951,0.017-11.926,0.035
			c-0.942,0.004-1.468-0.379-1.679-1.316c-0.822-3.652-0.955-7.309-0.286-11.002c0.186-1.024,0.692-1.403,1.7-1.388
			c2.385,0.035,4.77,0.014,7.156,0.01c1.883-0.003,2.574-0.688,2.58-2.591c0.012-4.015,0.067-8.032-0.022-12.045
			c-0.03-1.354,0.49-2.077,1.6-2.737c2.145-1.274,3.297-1.44,3.185,1.766c-0.107,3.057,0.01,6.122-0.054,9.182
			c-0.012,0.551-0.291,1.22-0.674,1.617c-1.565,1.624-1.646,3.978-0.09,5.556c1.532,1.553,3.948,1.593,5.452,0.092
			c1.601-1.598,1.651-3.982,0.006-5.515c-0.599-0.558-0.762-1.116-0.757-1.871c0.023-4.015,0.045-8.031-0.007-12.046
			c-0.016-1.206,0.377-1.783,1.608-2.026c2.962-0.584,3.233-0.413,3.232,2.623c-0.001,5.128-0.004,10.257-0.005,15.385
			c0,2.001,0.604,2.601,2.641,2.605c4.214,0.008,8.428-0.011,12.642,0.039c0.477,0.006,1.058,0.269,1.407,0.605
			c1.754,1.689,4.094,1.756,5.736,0.089c1.463-1.486,1.415-3.957-0.106-5.472c-1.529-1.522-3.893-1.42-5.575,0.14
			c-0.407,0.378-1.074,0.654-1.627,0.665c-3.179,0.06-6.36,0.03-9.541,0.024c-1.347-0.003-1.72-0.317-1.728-1.675
			c-0.028-4.572-0.028-9.144-0.006-13.715c0.006-1.319,0.585-1.704,1.925-1.515c3.416,0.48,2.881,0.645,2.908,3.388
			c0.02,2.027,0.001,4.055,0.006,6.083c0.004,1.842,0.682,2.532,2.503,2.534c4.055,0.005,8.11,0.028,12.165-0.018
			c1.01-0.012,1.601,0.365,2.095,1.22c1.916,3.317,3.12,6.857,3.529,10.665c0.154,1.431-0.184,1.837-1.577,1.841
			c-3.976,0.012-7.952,0.045-11.926-0.034c-0.604-0.012-1.268-0.491-1.78-0.907c-1.43-1.165-3.222-1.319-4.743-0.302
			c-1.421,0.95-2.045,2.678-1.544,4.28c0.548,1.751,2.083,2.999,3.828,2.765c0.949-0.127,1.823-0.801,2.736-1.217
			c0.509-0.232,1.025-0.623,1.542-0.63c3.895-0.052,7.792-0.033,11.688-0.021c1.431,0.004,1.834,0.508,1.571,1.931
			c-1.568,8.486-6.144,14.853-13.568,19.195c-1.864,1.09-2.608,0.638-2.61-1.518c-0.004-3.021-0.007-6.043,0.003-9.064
			c0.005-1.464,0.275-1.722,1.735-1.773c1.028-0.035,1.911-0.017,2.762,0.9c1.404,1.513,3.899,1.311,5.352-0.187
			c1.419-1.464,1.404-3.889-0.035-5.395c-1.441-1.509-3.958-1.628-5.443-0.065c-0.71,0.747-1.414,0.873-2.307,0.851
			c-1.152-0.028-2.306-0.015-3.459-0.006c-1.832,0.014-2.517,0.699-2.519,2.522c-0.005,4.85-0.004,9.7-0.007,14.55
			c-0.001,1.711-0.209,1.953-1.913,2.231c-0.313,0.051-0.629,0.092-0.942,0.143c-1.456,0.238-1.981-0.192-1.986-1.7
			c-0.012-4.055-0.004-8.11-0.004-12.165C118.687,104.627,118.685,104.627,118.683,104.627z"/>
		<path fill="#DDDDDD" stroke="#FFFFFF" stroke-miterlimit="10" d="M130.899,72.624c-0.555,0-1.109,0.001-1.664,0
			c-1.451-0.003-1.77-0.303-1.785-1.71c-0.009-0.792-0.022-1.586,0.013-2.377c0.051-1.147,0.871-1.749,1.834-1.193
			c1.64,0.946,3.212,2.021,4.74,3.141c0.314,0.23,0.518,0.97,0.389,1.342c-0.122,0.353-0.722,0.687-1.155,0.754
			c-0.774,0.12-1.58,0.034-2.372,0.034C130.899,72.618,130.899,72.621,130.899,72.624z"/>
		<path fill="#DDDDDD" stroke="#FFFFFF" stroke-miterlimit="10" d="M97.489,77.901c0.033,3.789,0.193,3.564-3.529,3.537
			c-1.832-0.013-2.3-0.727-1.408-2.36c0.755-1.383,1.599-2.73,2.537-3.993c0.302-0.406,1.127-0.786,1.535-0.649
			c0.405,0.136,0.712,0.911,0.831,1.456C97.596,76.533,97.488,77.229,97.489,77.901z"/>
		<path fill="#DDDDDD" stroke="#FFFFFF" stroke-miterlimit="10" d="M103.429,111.652c0.356,0,0.713-0.011,1.069,0.002
			c1.258,0.048,1.669,0.402,1.597,1.657c-0.047,0.815-0.084,1.89-0.585,2.359c-0.814,0.762-1.652-0.226-2.426-0.614
			c-0.598-0.3-1.22-0.629-1.685-1.093c-0.342-0.341-0.693-0.987-0.587-1.375c0.106-0.389,0.735-0.73,1.204-0.896
			c0.422-0.149,0.939-0.031,1.414-0.031C103.429,111.658,103.429,111.655,103.429,111.652z"/>
	</g>
	<path fill="#F7F7F7" d="M119.413,104.627c0-3.976,0.006-7.951-0.003-11.927c-0.004-1.77-0.682-2.444-2.447-2.447
		c-4.731-0.006-9.462,0.021-14.192-0.036c-0.584-0.007-1.293-0.306-1.722-0.707c-1.589-1.49-3.942-1.599-5.491-0.139
		c-1.493,1.407-1.603,3.855-0.242,5.394c1.444,1.633,3.835,1.891,5.399,0.333c0.859-0.856,1.716-0.945,2.759-0.938
		c3.459,0.023,6.917,0.004,10.376,0.018c1.36,0.006,1.729,0.345,1.731,1.679c0.015,7.037,0.015,14.073,0.001,21.11
		c-0.003,1.28-0.565,1.724-1.806,1.552c-3.005-0.416-3.004-0.416-3.003-3.449c0.001-1.511-0.002-3.021-0.003-4.532
		c-0.002-2.166-0.556-2.709-2.769-2.711c-3.618-0.002-7.235-0.002-10.853-0.008c-1.497-0.003-3.739-2.29-3.535-3.754
		c0.057-0.411,0.715-1.045,1.11-1.056c3.417-0.087,6.836-0.071,10.255-0.032c0.323,0.004,0.695,0.318,0.955,0.578
		c1.698,1.701,3.99,1.781,5.625,0.168c1.553-1.533,1.539-4.005-0.033-5.554c-1.547-1.525-3.98-1.379-5.639,0.27
		c-0.32,0.318-0.87,0.567-1.317,0.572c-3.975,0.045-7.951,0.017-11.926,0.035c-0.942,0.004-1.468-0.379-1.679-1.316
		c-0.822-3.652-0.955-7.309-0.286-11.002c0.186-1.024,0.692-1.403,1.7-1.388c2.385,0.035,4.77,0.014,7.156,0.01
		c1.883-0.003,2.574-0.688,2.58-2.591c0.012-4.015,0.067-8.032-0.022-12.045c-0.03-1.354,0.49-2.077,1.6-2.737
		c2.145-1.274,3.297-1.44,3.185,1.766c-0.107,3.057,0.01,6.122-0.054,9.182c-0.012,0.551-0.291,1.22-0.674,1.617
		c-1.565,1.624-1.646,3.978-0.09,5.556c1.532,1.553,3.948,1.593,5.452,0.092c1.601-1.598,1.651-3.982,0.006-5.515
		c-0.599-0.558-0.762-1.116-0.757-1.871c0.023-4.015,0.045-8.031-0.007-12.046c-0.016-1.206,0.377-1.783,1.608-2.026
		c2.962-0.584,3.233-0.413,3.232,2.623c-0.001,5.128-0.004,10.257-0.005,15.385c0,2.001,0.604,2.601,2.641,2.605
		c4.214,0.008,8.428-0.011,12.642,0.039c0.477,0.006,1.058,0.269,1.407,0.605c1.754,1.689,4.094,1.756,5.736,0.089
		c1.463-1.486,1.415-3.957-0.106-5.472c-1.529-1.522-3.893-1.42-5.575,0.14c-0.407,0.378-1.074,0.654-1.627,0.665
		c-3.179,0.06-6.36,0.03-9.541,0.024c-1.347-0.003-1.72-0.317-1.728-1.675c-0.028-4.572-0.028-9.144-0.006-13.715
		c0.006-1.319,0.585-1.704,1.925-1.515c3.416,0.48,2.881,0.645,2.908,3.388c0.02,2.027,0.001,4.055,0.006,6.083
		c0.004,1.842,0.682,2.532,2.503,2.534c4.055,0.005,8.11,0.028,12.165-0.018c1.01-0.012,1.601,0.365,2.095,1.22
		c1.916,3.317,3.12,6.857,3.529,10.665c0.154,1.431-0.184,1.837-1.577,1.841c-3.976,0.012-7.952,0.045-11.926-0.034
		c-0.604-0.012-1.268-0.491-1.78-0.907c-1.43-1.165-3.222-1.319-4.743-0.302c-1.421,0.95-2.045,2.678-1.544,4.28
		c0.548,1.751,2.083,2.999,3.828,2.765c0.949-0.127,1.823-0.801,2.736-1.217c0.509-0.232,1.025-0.623,1.542-0.63
		c3.895-0.052,7.792-0.033,11.688-0.021c1.431,0.004,1.834,0.508,1.571,1.931c-1.568,8.486-6.144,14.853-13.568,19.195
		c-1.864,1.09-2.608,0.638-2.61-1.518c-0.004-3.021-0.007-6.043,0.003-9.064c0.005-1.464,0.275-1.722,1.735-1.773
		c1.028-0.035,1.911-0.017,2.762,0.9c1.404,1.513,3.9,1.311,5.352-0.187c1.419-1.464,1.404-3.889-0.035-5.395
		c-1.441-1.509-3.958-1.628-5.443-0.065c-0.71,0.747-1.414,0.873-2.307,0.851c-1.152-0.028-2.306-0.015-3.459-0.006
		c-1.832,0.014-2.517,0.699-2.519,2.522c-0.005,4.85-0.004,9.7-0.007,14.55c-0.001,1.711-0.209,1.953-1.913,2.231
		c-0.313,0.051-0.629,0.092-0.942,0.143c-1.456,0.238-1.981-0.192-1.986-1.7c-0.012-4.055-0.004-8.11-0.004-12.165
		C119.417,104.627,119.415,104.627,119.413,104.627z"/>
	<path fill="#F7F7F7" d="M130.899,72.624c-0.555,0-1.109,0.001-1.664,0c-1.451-0.003-1.77-0.303-1.785-1.71
		c-0.009-0.792-0.022-1.586,0.013-2.377c0.051-1.147,0.871-1.749,1.834-1.193c1.64,0.946,3.212,2.021,4.74,3.141
		c0.314,0.23,0.518,0.97,0.389,1.342c-0.122,0.353-0.722,0.687-1.155,0.754c-0.774,0.12-1.58,0.034-2.372,0.034
		C130.899,72.618,130.899,72.621,130.899,72.624z"/>
	<path fill="#F7F7F7" d="M97.489,77.901c0.033,3.789,0.193,3.564-3.529,3.537c-1.832-0.013-2.3-0.727-1.408-2.36
		c0.755-1.383,1.599-2.73,2.537-3.993c0.302-0.406,1.127-0.786,1.535-0.649c0.405,0.136,0.712,0.911,0.831,1.456
		C97.596,76.533,97.488,77.229,97.489,77.901z"/>
	<path fill="#F7F7F7" d="M103.429,111.652c0.356,0,0.713-0.011,1.069,0.002c1.258,0.048,1.669,0.402,1.597,1.657
		c-0.047,0.815-0.084,1.89-0.585,2.359c-0.814,0.762-1.652-0.226-2.426-0.614c-0.598-0.3-1.22-0.629-1.685-1.093
		c-0.342-0.341-0.693-0.987-0.587-1.375c0.106-0.389,0.735-0.73,1.204-0.896c0.422-0.149,0.939-0.031,1.414-0.031
		C103.429,111.658,103.429,111.655,103.429,111.652z"/>
	<g>
		<path d="M12.134,151.824l5.291-1.129c0.635,2.996,3.07,4.494,7.306,4.494c1.934,0,3.421-0.384,4.461-1.151
			c1.041-0.768,1.561-1.72,1.561-2.856c0-0.827-0.236-1.59-0.708-2.291c-0.472-0.701-1.483-1.251-3.033-1.649l-5.778-1.506
			c-1.978-0.517-3.439-1.103-4.384-1.76c-0.945-0.657-1.701-1.583-2.269-2.779c-0.568-1.196-0.852-2.472-0.852-3.83
			c0-2.701,1.004-4.867,3.011-6.498c2.007-1.631,4.576-2.446,7.705-2.446c2.598,0,4.919,0.568,6.963,1.705s3.347,2.745,3.908,4.826
			l-5.181,1.284c-0.797-2.288-2.657-3.432-5.579-3.432c-1.697,0-2.993,0.354-3.886,1.063c-0.893,0.708-1.339,1.609-1.339,2.701
			c0,1.727,1.402,2.937,4.207,3.631l5.136,1.284c3.114,0.782,5.203,1.937,6.266,3.465c1.063,1.528,1.594,3.214,1.594,5.059
			c0,2.967-1.118,5.302-3.354,7.007c-2.236,1.705-5.133,2.557-8.69,2.557c-2.996,0-5.62-0.627-7.871-1.882
			S12.872,154.481,12.134,151.824z"/>
		<path d="M46.65,159.108h-5.446v-30.221h5.446V159.108z"/>
		<path d="M70.185,148.614l5.048,0.553c-0.325,3.026-1.494,5.516-3.509,7.472c-2.015,1.956-4.66,2.934-7.937,2.934
			c-2.76,0-5-0.694-6.719-2.081s-3.044-3.269-3.974-5.646c-0.93-2.376-1.395-4.996-1.395-7.86c0-4.605,1.092-8.35,3.277-11.236
			c2.184-2.886,5.188-4.328,9.011-4.328c2.996,0,5.491,0.922,7.483,2.767s3.247,4.487,3.764,7.926l-5.048,0.531
			c-0.93-4.561-2.981-6.841-6.155-6.841c-2.037,0-3.62,0.948-4.749,2.845c-1.129,1.897-1.694,4.646-1.694,8.247
			c0,3.66,0.605,6.424,1.815,8.291s2.812,2.801,4.804,2.801c1.594,0,2.952-0.627,4.074-1.882S70.037,150.356,70.185,148.614z"/>
		<path d="M100.538,136.061l-1.218,10.317c-0.089,0.723-0.133,1.417-0.133,2.081c0,0.989,0.354,1.483,1.063,1.483
			c1.137,0,2.225-0.779,3.266-2.336c1.041-1.557,1.561-3.443,1.561-5.657c0-3.203-1.155-5.804-3.465-7.804c-2.31-2-5.111-3-8.402-3
			c-3.616,0-6.653,1.24-9.11,3.719c-2.458,2.48-3.686,5.535-3.686,9.166c0,3.395,1.155,6.343,3.465,8.845
			c2.31,2.502,5.553,3.753,9.73,3.753c3.247,0,6.561-0.871,9.941-2.612l1.306,3.011c-3.616,1.845-7.365,2.767-11.247,2.767
			c-5.151,0-9.243-1.553-12.276-4.66c-3.033-3.107-4.55-6.815-4.55-11.125c0-4.502,1.594-8.265,4.782-11.291
			s7.04-4.539,11.557-4.539c4.251,0,7.823,1.303,10.716,3.908c2.893,2.605,4.339,5.893,4.339,9.863c0,2.878-0.812,5.443-2.435,7.694
			c-1.624,2.251-3.601,3.376-5.933,3.376c-1.815,0-3.07-0.768-3.764-2.303c-1.269,1.594-2.819,2.391-4.649,2.391
			c-1.874,0-3.48-0.782-4.815-2.347c-1.336-1.565-2.004-3.624-2.004-6.177c0-2.627,0.753-4.764,2.258-6.409
			c1.505-1.646,3.299-2.469,5.38-2.469c2.007,0,3.454,0.635,4.339,1.904l0.177-1.55H100.538z M91.682,149.5
			c1.181,0,2.247-0.572,3.199-1.716c0.952-1.144,1.428-2.631,1.428-4.461c0-1.033-0.365-1.959-1.096-2.779
			c-0.731-0.819-1.627-1.229-2.69-1.229c-1.151,0-2.103,0.506-2.856,1.517c-0.753,1.011-1.129,2.321-1.129,3.93
			c0,1.373,0.292,2.505,0.875,3.398C89.996,149.053,90.752,149.5,91.682,149.5z"/>
		<path d="M141.718,159.108h-5.557v-26.457l-8.369,26.457h-2.856l-8.413-26.457v26.457h-4.45v-30.221h8.524l6.332,19.461
			l6.221-19.461h8.568V159.108z"/>
		<path d="M172.093,159.108h-5.823l-2.413-7.195h-11.623l-2.369,7.195h-4.649l10.029-30.221h6.708L172.093,159.108z
			 M162.396,147.551l-4.406-13.483l-4.406,13.483H162.396z"/>
	</g>
	<g>
		<path fill="#F9F9F9" d="M13.134,151.824l5.291-1.129c0.635,2.996,3.07,4.494,7.306,4.494c1.934,0,3.421-0.384,4.461-1.151
			c1.041-0.768,1.561-1.72,1.561-2.856c0-0.827-0.236-1.59-0.708-2.291c-0.472-0.701-1.483-1.251-3.033-1.649l-5.778-1.506
			c-1.978-0.517-3.439-1.103-4.384-1.76c-0.945-0.657-1.701-1.583-2.269-2.779s-0.852-2.472-0.852-3.83
			c0-2.701,1.004-4.867,3.011-6.498c2.007-1.631,4.576-2.446,7.705-2.446c2.598,0,4.919,0.568,6.963,1.705s3.347,2.745,3.908,4.826
			l-5.181,1.284c-0.797-2.288-2.657-3.432-5.579-3.432c-1.697,0-2.993,0.354-3.886,1.063c-0.893,0.708-1.339,1.609-1.339,2.701
			c0,1.727,1.402,2.937,4.207,3.631l5.136,1.284c3.114,0.782,5.203,1.937,6.266,3.465c1.063,1.528,1.594,3.214,1.594,5.059
			c0,2.967-1.118,5.302-3.354,7.007c-2.236,1.705-5.133,2.557-8.69,2.557c-2.996,0-5.62-0.627-7.871-1.882
			S13.872,154.481,13.134,151.824z"/>
		<path fill="#F9F9F9" d="M47.65,159.108h-5.446v-30.221h5.446V159.108z"/>
		<path fill="#F9F9F9" d="M71.185,148.614l5.048,0.553c-0.325,3.026-1.494,5.516-3.509,7.472c-2.015,1.956-4.66,2.934-7.937,2.934
			c-2.76,0-5-0.694-6.719-2.081s-3.044-3.269-3.974-5.646c-0.93-2.376-1.395-4.996-1.395-7.86c0-4.605,1.092-8.35,3.277-11.236
			c2.184-2.886,5.188-4.328,9.011-4.328c2.996,0,5.491,0.922,7.483,2.767s3.247,4.487,3.764,7.926l-5.048,0.531
			c-0.93-4.561-2.981-6.841-6.155-6.841c-2.037,0-3.62,0.948-4.749,2.845c-1.129,1.897-1.694,4.646-1.694,8.247
			c0,3.66,0.605,6.424,1.815,8.291s2.812,2.801,4.804,2.801c1.594,0,2.952-0.627,4.074-1.882S71.037,150.356,71.185,148.614z"/>
		<path fill="#F9F9F9" d="M101.538,136.061l-1.218,10.317c-0.089,0.723-0.133,1.417-0.133,2.081c0,0.989,0.354,1.483,1.063,1.483
			c1.137,0,2.225-0.779,3.266-2.336c1.041-1.557,1.561-3.443,1.561-5.657c0-3.203-1.155-5.804-3.465-7.804c-2.31-2-5.111-3-8.402-3
			c-3.616,0-6.653,1.24-9.11,3.719c-2.458,2.48-3.686,5.535-3.686,9.166c0,3.395,1.155,6.343,3.465,8.845
			c2.31,2.502,5.553,3.753,9.73,3.753c3.247,0,6.561-0.871,9.941-2.612l1.306,3.011c-3.616,1.845-7.365,2.767-11.247,2.767
			c-5.151,0-9.243-1.553-12.276-4.66c-3.033-3.107-4.55-6.815-4.55-11.125c0-4.502,1.594-8.265,4.782-11.291
			s7.04-4.539,11.557-4.539c4.251,0,7.823,1.303,10.716,3.908c2.893,2.605,4.339,5.893,4.339,9.863c0,2.878-0.812,5.443-2.435,7.694
			c-1.624,2.251-3.601,3.376-5.933,3.376c-1.815,0-3.07-0.768-3.764-2.303c-1.269,1.594-2.819,2.391-4.649,2.391
			c-1.874,0-3.48-0.782-4.815-2.347c-1.336-1.565-2.004-3.624-2.004-6.177c0-2.627,0.753-4.764,2.258-6.409
			c1.505-1.646,3.299-2.469,5.38-2.469c2.007,0,3.454,0.635,4.339,1.904l0.177-1.55H101.538z M92.682,149.5
			c1.181,0,2.247-0.572,3.199-1.716c0.952-1.144,1.428-2.631,1.428-4.461c0-1.033-0.365-1.959-1.096-2.779
			c-0.731-0.819-1.627-1.229-2.69-1.229c-1.151,0-2.103,0.506-2.856,1.517c-0.753,1.011-1.129,2.321-1.129,3.93
			c0,1.373,0.292,2.505,0.875,3.398C90.996,149.053,91.752,149.5,92.682,149.5z"/>
		<path fill="#F9F9F9" d="M142.718,159.108h-5.557v-26.457l-8.369,26.457h-2.856l-8.413-26.457v26.457h-4.45v-30.221h8.524
			l6.332,19.461l6.221-19.461h8.568V159.108z"/>
		<path fill="#F9F9F9" d="M173.093,159.108h-5.823l-2.413-7.195h-11.623l-2.369,7.195h-4.649l10.029-30.221h6.708L173.093,159.108z
			 M163.396,147.551l-4.406-13.483l-4.406,13.483H163.396z"/>
	</g>
	<g>
		<path fill="#FCFCFC" d="M13.134,151.824l5.291-1.129c0.635,2.996,3.07,4.494,7.306,4.494c1.934,0,3.421-0.384,4.461-1.151
			c1.041-0.768,1.561-1.72,1.561-2.856c0-0.827-0.236-1.59-0.708-2.291c-0.472-0.701-1.483-1.251-3.033-1.649l-5.778-1.506
			c-1.978-0.517-3.439-1.103-4.384-1.76c-0.945-0.657-1.701-1.583-2.269-2.779s-0.852-2.472-0.852-3.83
			c0-2.701,1.004-4.867,3.011-6.498c2.007-1.631,4.576-2.446,7.705-2.446c2.598,0,4.919,0.568,6.963,1.705s3.347,2.745,3.908,4.826
			l-5.181,1.284c-0.797-2.288-2.657-3.432-5.579-3.432c-1.697,0-2.993,0.354-3.886,1.063c-0.893,0.708-1.339,1.609-1.339,2.701
			c0,1.727,1.402,2.937,4.207,3.631l5.136,1.284c3.114,0.782,5.203,1.937,6.266,3.465c1.063,1.528,1.594,3.214,1.594,5.059
			c0,2.967-1.118,5.302-3.354,7.007c-2.236,1.705-5.133,2.557-8.69,2.557c-2.996,0-5.62-0.627-7.871-1.882
			S13.872,154.481,13.134,151.824z"/>
		<path fill="#FCFCFC" d="M47.65,159.108h-5.446v-30.221h5.446V159.108z"/>
		<path fill="#FCFCFC" d="M71.185,148.614l5.048,0.553c-0.325,3.026-1.494,5.516-3.509,7.472c-2.015,1.956-4.66,2.934-7.937,2.934
			c-2.76,0-5-0.694-6.719-2.081s-3.044-3.269-3.974-5.646c-0.93-2.376-1.395-4.996-1.395-7.86c0-4.605,1.092-8.35,3.277-11.236
			c2.184-2.886,5.188-4.328,9.011-4.328c2.996,0,5.491,0.922,7.483,2.767s3.247,4.487,3.764,7.926l-5.048,0.531
			c-0.93-4.561-2.981-6.841-6.155-6.841c-2.037,0-3.62,0.948-4.749,2.845c-1.129,1.897-1.694,4.646-1.694,8.247
			c0,3.66,0.605,6.424,1.815,8.291s2.812,2.801,4.804,2.801c1.594,0,2.952-0.627,4.074-1.882S71.037,150.356,71.185,148.614z"/>
		<path fill="#FCFCFC" d="M101.538,136.061l-1.218,10.317c-0.089,0.723-0.133,1.417-0.133,2.081c0,0.989,0.354,1.483,1.063,1.483
			c1.137,0,2.225-0.779,3.266-2.336c1.041-1.557,1.561-3.443,1.561-5.657c0-3.203-1.155-5.804-3.465-7.804c-2.31-2-5.111-3-8.402-3
			c-3.616,0-6.653,1.24-9.11,3.719c-2.458,2.48-3.686,5.535-3.686,9.166c0,3.395,1.155,6.343,3.465,8.845
			c2.31,2.502,5.553,3.753,9.73,3.753c3.247,0,6.561-0.871,9.941-2.612l1.306,3.011c-3.616,1.845-7.365,2.767-11.247,2.767
			c-5.151,0-9.243-1.553-12.276-4.66c-3.033-3.107-4.55-6.815-4.55-11.125c0-4.502,1.594-8.265,4.782-11.291
			s7.04-4.539,11.557-4.539c4.251,0,7.823,1.303,10.716,3.908c2.893,2.605,4.339,5.893,4.339,9.863c0,2.878-0.812,5.443-2.435,7.694
			c-1.624,2.251-3.601,3.376-5.933,3.376c-1.815,0-3.07-0.768-3.764-2.303c-1.269,1.594-2.819,2.391-4.649,2.391
			c-1.874,0-3.48-0.782-4.815-2.347c-1.336-1.565-2.004-3.624-2.004-6.177c0-2.627,0.753-4.764,2.258-6.409
			c1.505-1.646,3.299-2.469,5.38-2.469c2.007,0,3.454,0.635,4.339,1.904l0.177-1.55H101.538z M92.682,149.5
			c1.181,0,2.247-0.572,3.199-1.716c0.952-1.144,1.428-2.631,1.428-4.461c0-1.033-0.365-1.959-1.096-2.779
			c-0.731-0.819-1.627-1.229-2.69-1.229c-1.151,0-2.103,0.506-2.856,1.517c-0.753,1.011-1.129,2.321-1.129,3.93
			c0,1.373,0.292,2.505,0.875,3.398C90.996,149.053,91.752,149.5,92.682,149.5z"/>
		<path fill="#FCFCFC" d="M142.718,159.108h-5.557v-26.457l-8.369,26.457h-2.856l-8.413-26.457v26.457h-4.45v-30.221h8.524
			l6.332,19.461l6.221-19.461h8.568V159.108z"/>
		<path fill="#FCFCFC" d="M173.093,159.108h-5.823l-2.413-7.195h-11.623l-2.369,7.195h-4.649l10.029-30.221h6.708L173.093,159.108z
			 M163.396,147.551l-4.406-13.483l-4.406,13.483H163.396z"/>
	</g>
	<g>
		<path fill="#3D78D8" d="M12.123,151.805l5.401-1.111c0.648,2.948,3.134,4.422,7.458,4.422c1.974,0,3.492-0.378,4.554-1.133
			s1.593-1.692,1.593-2.81c0-0.813-0.241-1.565-0.723-2.255c-0.482-0.69-1.514-1.231-3.096-1.623l-5.898-1.481
			c-2.019-0.508-3.51-1.086-4.475-1.732c-0.964-0.646-1.736-1.558-2.316-2.734c-0.58-1.176-0.87-2.433-0.87-3.769
			c0-2.658,1.024-4.789,3.073-6.394c2.049-1.605,4.67-2.407,7.864-2.407c2.652,0,5.021,0.559,7.107,1.677s3.416,2.701,3.989,4.749
			l-5.288,1.264c-0.814-2.251-2.712-3.377-5.695-3.377c-1.733,0-3.055,0.349-3.966,1.046c-0.911,0.697-1.367,1.583-1.367,2.658
			c0,1.699,1.431,2.89,4.294,3.573l5.243,1.264c3.179,0.77,5.311,1.906,6.396,3.409c1.085,1.503,1.627,3.162,1.627,4.978
			c0,2.919-1.141,5.217-3.424,6.895s-5.239,2.516-8.87,2.516c-3.058,0-5.736-0.617-8.034-1.852S12.876,154.42,12.123,151.805z"/>
		<path fill="#3D78D8" d="M47.355,158.973h-5.559v-29.736h5.559V158.973z"/>
		<path fill="#3D78D8" d="M71.378,148.647l5.153,0.545c-0.331,2.977-1.525,5.428-3.582,7.352c-2.057,1.924-4.757,2.886-8.102,2.886
			c-2.817,0-5.104-0.683-6.859-2.048s-3.107-3.217-4.057-5.555s-1.424-4.916-1.424-7.734c0-4.531,1.115-8.216,3.345-11.056
			s5.296-4.259,9.198-4.259c3.058,0,5.605,0.908,7.638,2.723s3.315,4.415,3.842,7.799l-5.153,0.523
			c-0.949-4.488-3.043-6.731-6.283-6.731c-2.079,0-3.695,0.933-4.847,2.799s-1.729,4.571-1.729,8.115
			c0,3.602,0.618,6.321,1.853,8.158c1.235,1.837,2.87,2.756,4.904,2.756c1.627,0,3.013-0.617,4.158-1.852
			S71.227,150.36,71.378,148.647z"/>
		<path fill="#3D78D8" d="M102.361,136.295l-1.243,10.152c-0.09,0.712-0.136,1.394-0.136,2.048c0,0.973,0.362,1.46,1.085,1.46
			c1.16,0,2.271-0.766,3.333-2.298c1.062-1.532,1.593-3.388,1.593-5.566c0-3.152-1.179-5.711-3.537-7.679
			c-2.358-1.968-5.217-2.952-8.576-2.952c-3.691,0-6.791,1.22-9.299,3.66c-2.508,2.44-3.763,5.446-3.763,9.019
			c0,3.34,1.179,6.241,3.537,8.703c2.358,2.462,5.669,3.693,9.932,3.693c3.315,0,6.697-0.857,10.147-2.571l1.333,2.963
			c-3.691,1.815-7.518,2.723-11.48,2.723c-5.258,0-9.435-1.529-12.531-4.586c-3.096-3.057-4.644-6.706-4.644-10.947
			c0-4.43,1.627-8.133,4.881-11.11s7.186-4.466,11.797-4.466c4.339,0,7.985,1.282,10.938,3.845c2.953,2.563,4.429,5.798,4.429,9.705
			c0,2.832-0.829,5.355-2.486,7.57s-3.676,3.322-6.057,3.322c-1.853,0-3.134-0.755-3.842-2.266
			c-1.296,1.569-2.878,2.353-4.746,2.353c-1.913,0-3.552-0.77-4.915-2.309c-1.363-1.539-2.045-3.565-2.045-6.078
			c0-2.585,0.768-4.687,2.305-6.307c1.537-1.619,3.367-2.429,5.492-2.429c2.049,0,3.525,0.624,4.429,1.873l0.181-1.525H102.361z
			 M93.321,149.518c1.205,0,2.294-0.563,3.266-1.688s1.458-2.589,1.458-4.39c0-1.017-0.373-1.928-1.119-2.734
			c-0.746-0.806-1.661-1.209-2.746-1.209c-1.175,0-2.147,0.497-2.915,1.492c-0.768,0.995-1.153,2.284-1.153,3.867
			c0,1.351,0.298,2.465,0.893,3.344C91.6,149.079,92.372,149.518,93.321,149.518z"/>
		<path fill="#3D78D8" d="M144.395,158.973h-5.672V132.94l-8.542,26.033h-2.915l-8.588-26.033v26.033h-4.542v-29.736h8.701
			l6.463,19.149l6.35-19.149h8.746V158.973z"/>
		<path fill="#3D78D8" d="M175.401,158.973h-5.944l-2.463-7.08H155.13l-2.418,7.08h-4.746l10.237-29.736h6.848L175.401,158.973z
			 M165.503,147.601l-4.497-13.267l-4.497,13.267H165.503z"/>
	</g>
</g>
</svg>
