<?xml version="1.0" encoding="utf-8"?>
<!-- Generator: Adobe Illustrator 17.0.0, SVG Export Plug-In . SVG Version: 6.00 Build 0)  -->
<!DOCTYPE svg PUBLIC "-//W3C//DTD SVG 1.1//EN" "http://www.w3.org/Graphics/SVG/1.1/DTD/svg11.dtd">
<svg version="1.1" id="Layer_1" xmlns="http://www.w3.org/2000/svg" xmlns:xlink="http://www.w3.org/1999/xlink" x="0px" y="0px"
	 width="206.406px" height="145px" viewBox="0 0 206.406 145" enable-background="new 0 0 206.406 145" xml:space="preserve">
<g>
	<path fill="#FDFDFD" d="M206.148,0.258c0.426,0.013,0.999-0.161,0.78,0.646c-0.043,0.16-0.006,0.342-0.006,0.514
		c0,47.628-0.005,95.256,0.03,142.885c0.001,1.071-0.247,1.24-1.267,1.24c-68.089-0.03-136.179-0.029-204.268-0.002
		c-0.973,0-1.236-0.22-1.183-1.189c0.09-1.672,0.025-3.352,0.025-5.028c1.887,0.022,3.775,0.022,5.661,0.079
		c0.713,0.022,1.065-0.074,1.067-0.947c0.003-0.932-0.472-0.988-1.117-0.885c-1.044,0.167-1.253-0.283-1.241-1.259
		c0.052-4.465,0.023-8.932,0.023-13.398c0-3.113,0-3.099-3.156-3.065c-0.677,0.007-1.105,0.026-1.099,0.93
		c0.005,0.903,0.44,1.021,1.113,0.91c1.078-0.178,1.252,0.333,1.241,1.289c-0.048,4.079-0.02,8.159-0.02,12.238
		c0,2.435,0,2.435-2.471,2.302c0-45.366,0.004-90.733-0.024-136.099C0.233,0.452,0.452,0.232,1.419,0.233
		c19.909,0.033,39.819,0.025,59.729,0.025c-0.112,0.334-0.411,0.232-0.646,0.273c-9.819,1.71-16.778,7.077-20.626,16.302
		c-9.074,21.756-18.104,43.53-27.151,65.297c-0.851,2.047-0.36,2.8,1.831,2.8c20.807,0.001,41.614,0.001,62.422-0.001
		c0.473,0,0.948,0.005,1.417-0.043c3.323-0.343,4.906-3.449,3.24-6.335c-0.458-0.793-1.097-1.424-1.759-2.042
		c-7.224-6.75-14.404-13.548-21.68-20.242c-5.022-4.62-7.424-10.334-7.4-17.061c0.03-8.573,3.362-15.516,10.672-20.258
		c4.469-2.899,9.501-3.76,14.758-3.756c32.758,0.021,65.517,0.011,98.275,0.011c8.426,0,16.852-0.009,25.278,0.011
		c1.034,0.003,1.82-0.194,2.255-1.271c1.443-3.577,2.954-7.127,4.394-10.705C206.832,2.235,206.951,1.184,206.148,0.258z
		 M108.751,34.4c-10.963,0-21.926-0.003-32.889,0.006c-0.684,0.001-1.383,0.023-2.05,0.157c-3.602,0.722-4.941,4.724-2.5,7.456
		c0.514,0.575,1.096,1.092,1.663,1.618c6.894,6.411,13.819,12.789,20.677,19.239c4.644,4.368,7.725,9.715,7.911,16.128
		c0.304,10.522-4.393,18.464-13.528,23.75c-0.337,0.195-1.01,0.213-0.871,0.762c0.134,0.531,0.739,0.276,1.13,0.276
		c8.168,0.014,16.337,0.013,24.505,0.009c2.751-0.001,3.702-0.651,4.772-3.234c8.726-21.066,17.452-42.133,26.178-63.2
		c0.953-2.3,0.509-2.968-1.981-2.968C130.762,34.4,119.756,34.401,108.751,34.4z M144.002,103.782c1.032,0,2.065,0.027,3.096-0.004
		c11.75-0.358,20.078-5.932,24.645-16.719c7.02-16.578,13.82-33.248,20.711-49.881c0.83-2.004,0.301-2.779-1.905-2.775
		c-7.524,0.015-15.048,0.035-22.571,0.061c-2.418,0.008-3.461,0.729-4.403,3.002c-3.153,7.602-6.309,15.203-9.456,22.807
		c-5.64,13.625-11.276,27.251-16.911,40.877c-0.784,1.896-0.295,2.623,1.765,2.63C140.648,103.788,142.325,103.783,144.002,103.782z
		 M90.591,139.656c0.942,3.61,4.275,5.755,8.204,5.322c3.767-0.415,6.163-2.989,6.212-6.798c0.052-4.038,0.002-8.077,0.037-12.114
		c0.007-0.795-0.044-1.214-1.057-1.218c-1.064-0.004-1.068,0.505-1.03,1.259c0.013,0.25,0.189,0.6-0.191,0.777
		c-2.945-3.263-7.446-2.851-10.191-0.493c-2.932,2.519-3.516,7.048-1.262,10.135c1.392,1.907,3.303,2.982,5.654,3.173
		c2.318,0.188,4.306-0.609,5.964-2.438c0.097,3.062-0.997,4.914-3.187,5.618c-2.445,0.787-5.118,0.055-6.355-2.07
		C92.672,139.58,91.857,139.391,90.591,139.656z M110.025,126.242c0.544-1.555-0.358-1.297-1.088-1.365
		c-1.031-0.096-0.818,0.597-0.819,1.162c-0.004,4.126,0.032,8.253-0.028,12.379c-0.014,0.948,0.377,0.993,1.123,1.026
		c0.828,0.037,0.995-0.255,0.982-1.026c-0.045-2.578-0.034-5.158-0.001-7.736c0.019-1.519,0.407-2.913,1.82-3.76
		c2.476-1.483,5.467,0.057,5.632,3.012c0.158,2.829,0.095,5.671,0.087,8.507c-0.002,0.676,0.117,0.968,0.896,1.009
		c0.99,0.053,1.202-0.267,1.197-1.22c-0.014-2.791-0.201-5.591,0.099-8.374c0.236-2.19,1.593-3.418,3.62-3.438
		c2.061-0.021,3.361,1.119,3.728,3.323c0.105,0.631,0.132,1.281,0.136,1.923c0.016,2.321,0.037,4.643-0.011,6.963
		c-0.016,0.773,0.355,0.855,0.939,0.789c0.492-0.056,1.162,0.26,1.146-0.72c-0.046-2.836,0.099-5.682-0.082-8.507
		c-0.246-3.829-3.057-6.072-6.702-5.57c-1.63,0.224-2.914,1.072-3.889,2.391C116.22,124.101,113.151,123.76,110.025,126.242z
		 M204.883,126.901c-4.015-3.09-8.264-3.066-11.177-0.027c-2.624,2.737-2.824,7.113-0.448,10.013
		c1.473,1.798,3.408,2.73,5.701,2.856c2.287,0.126,4.23-0.733,5.924-2.528c0,0.49,0,0.747,0,1.003c0,0.626-0.191,1.243,0.903,1.243
		c1.11,0,0.878-0.646,0.878-1.249c0.004-5.803-0.008-11.606,0.016-17.409c0.003-0.69-0.124-0.986-0.901-0.979
		c-0.764,0.007-0.926,0.286-0.911,0.986C204.91,122.81,204.883,124.813,204.883,126.901z M146.457,134.571
		c-1.16-0.261-1.97-0.084-2.717,1.091c-1.19,1.872-3.156,2.476-5.305,2.096c-2.107-0.373-3.498-1.702-4.26-3.698
		c-0.322-0.845-0.182-1.191,0.851-1.174c3.651,0.059,7.304,0.008,10.956,0.036c0.721,0.005,1.121-0.081,1.037-0.963
		c-0.296-3.119-1.731-5.495-4.614-6.769c-2.849-1.259-5.58-0.793-7.917,1.26c-2.371,2.083-3.162,4.748-2.347,7.809
		c0.854,3.205,3.945,5.5,7.282,5.502C142.663,139.763,145.676,137.545,146.457,134.571z M189.03,134.578
		c-1.168-0.286-1.969-0.072-2.712,1.094c-1.16,1.821-3.078,2.424-5.185,2.098c-2.068-0.32-3.485-1.577-4.283-3.491
		c-0.516-1.239-0.406-1.367,0.926-1.368c3.607-0.003,7.214-0.02,10.821,0.014c0.762,0.007,1.054-0.153,1.012-0.992
		c-0.152-3.066-2.182-5.891-5.1-6.966c-2.845-1.048-6.085-0.18-8.184,2.193c-2.06,2.328-2.487,5.63-1.087,8.409
		c1.388,2.755,4.462,4.47,7.409,4.134C185.812,139.343,188.349,137.306,189.03,134.578z M68.879,137.306
		c0,0.377,0.033,0.661-0.006,0.935c-0.119,0.838,0.095,1.2,1.068,1.191c0.927-0.009,1.018-0.381,1.012-1.141
		c-0.028-4.085-0.021-8.169-0.006-12.254c0.002-0.691,0.055-1.21-0.962-1.185c-0.9,0.022-1.258,0.244-1.113,1.148
		c0.044,0.273,0.007,0.559,0.007,0.93c-3.903-3.165-8.319-3.132-11.257-0.011c-2.755,2.927-2.756,7.497-0.003,10.399
		C60.604,140.465,65.01,140.5,68.879,137.306z M41.551,135.319c-1.776-0.218-1.776-0.218-2.812,0.904
		c-2.75,2.979-7.813,1.898-9.149-1.93c-0.317-0.907-0.281-1.307,0.859-1.287c3.48,0.058,6.963-0.028,10.442,0.05
		c1.1,0.025,1.264-0.374,1.199-1.327c-0.21-3.072-2.472-5.829-5.482-6.58c-3.22-0.803-6.465,0.457-8.132,3.26
		c-1.529,2.572-1.62,5.244-0.023,7.805c1.561,2.503,3.926,3.697,6.872,3.467C38.2,139.456,40.251,137.947,41.551,135.319z
		 M85.633,137.64c0.03,0.406,0.062,0.537,0.045,0.662c-0.1,0.767,0.084,1.13,1.003,1.13c0.941,0.001,1.006-0.406,1.001-1.153
		c-0.026-4.126-0.031-8.252,0.004-12.378c0.007-0.77-0.177-1.019-0.992-1.044c-0.959-0.03-1.093,0.331-1.104,1.18
		c-0.034,2.789,0.274,5.593-0.184,8.365c-0.357,2.165-2.062,3.503-4.278,3.503c-2.257,0-3.66-1.199-4.024-3.502
		c-0.12-0.76-0.163-1.537-0.171-2.307c-0.022-2.149-0.04-4.299,0.008-6.447c0.018-0.806-0.419-0.793-0.969-0.758
		c-0.519,0.033-1.137-0.201-1.118,0.754c0.051,2.664-0.076,5.335,0.065,7.992c0.204,3.825,2.182,5.84,5.802,6.115
		C82.618,139.895,84.251,139.281,85.633,137.64z M151.723,126.428c0.077-1.03,0.13-1.612-1.031-1.598c-1.237,0.015-1,0.718-1,1.413
		c-0.002,4.038,0.027,8.076-0.023,12.114c-0.011,0.891,0.3,1.053,1.105,1.065c0.808,0.012,1.008-0.233,0.992-1.017
		c-0.05-2.405-0.048-4.811-0.007-7.216c0.04-2.326,1.028-3.865,2.784-4.504c3.093-1.126,5.837,0.951,5.914,4.531
		c0.052,2.447,0.052,4.898-0.006,7.345c-0.02,0.856,0.4,0.875,1.014,0.837c0.534-0.033,1.107,0.165,1.085-0.778
		c-0.06-2.619,0.066-5.245-0.06-7.859c-0.201-4.183-3.093-6.583-7.215-6.162C153.944,124.735,152.883,125.412,151.723,126.428z
		 M21.327,139.392c0.859,0,1.719-0.021,2.578,0.008c0.538,0.018,0.731-0.161,0.777-0.726c0.074-0.906-0.237-1.284-1.144-1.128
		c-0.994,0.171-1.304-0.211-1.275-1.238c0.076-2.705,0.082-5.415-0.001-8.119c-0.034-1.12,0.248-1.621,1.41-1.416
		c0.797,0.141,0.985-0.221,1.021-0.997c0.051-1.11-0.66-0.942-1.258-0.869c-1.032,0.125-1.22-0.274-1.081-1.229
		c0.181-1.238,0.831-1.995,2.004-2.19c0.96-0.16,0.904-0.773,0.817-1.411c-0.128-0.928-0.836-0.395-1.213-0.339
		c-2.104,0.314-3.495,1.802-3.544,3.93c-0.024,1.031-0.343,1.371-1.321,1.228c-0.655-0.096-1.125-0.039-1.095,0.892
		c0.025,0.787,0.212,1.138,1.012,0.984c1.178-0.228,1.411,0.307,1.379,1.4c-0.08,2.704-0.07,5.414-0.003,8.119
		c0.024,0.983-0.204,1.434-1.246,1.26c-0.743-0.124-1.139,0.043-1.146,0.984c-0.008,0.996,0.544,0.862,1.141,0.858
		C19.866,139.389,20.597,139.393,21.327,139.392z M169.81,122.439c0-0.472-0.036-0.947,0.008-1.415
		c0.075-0.797-0.044-1.23-1.054-1.234c-1.071-0.004-1.053,0.54-1.018,1.283c0.032,0.685,0.007,1.372,0.007,2.059
		c0,1.748,0,1.729-1.743,1.767c-0.504,0.011-1.233-0.352-1.245,0.731c-0.01,0.872,0.182,1.182,1.117,1.149
		c1.868-0.065,1.87-0.007,1.87,1.884c0,3.218,0.022,6.435-0.016,9.653c-0.009,0.785,0.126,1.139,1.028,1.128
		c0.838-0.011,1.081-0.231,1.066-1.081c-0.053-3.002-0.021-6.006-0.021-9.009c0-2.535,0-2.555,2.487-2.586
		c0.657-0.008,1.014-0.077,1.007-0.886c-0.006-0.78-0.208-1.017-1.014-1.017C169.81,124.866,169.81,124.828,169.81,122.439z
		 M13.69,131.237c0-1.115,0-2.23,0-3.345c0-3.028,0-3.019-3.068-3.012c-0.679,0.001-1.185-0.067-1.198,0.948
		c-0.014,1.099,0.626,0.951,1.232,0.883c0.943-0.106,1.143,0.303,1.127,1.169c-0.049,2.658-0.08,5.32,0.01,7.976
		c0.042,1.234-0.11,1.995-1.585,1.708c-0.718-0.14-0.852,0.277-0.847,0.9c0.006,0.591,0.056,0.969,0.815,0.948
		c1.714-0.047,3.431-0.026,5.146-0.008c0.469,0.005,0.657-0.111,0.699-0.634c0.074-0.908-0.131-1.416-1.161-1.213
		c-0.967,0.19-1.24-0.208-1.193-1.174C13.751,134.671,13.69,132.953,13.69,131.237z M48.735,134.772
		c-1.368,0.01-2.544,1.21-2.511,2.562c0.033,1.355,1.263,2.523,2.605,2.474c1.312-0.048,2.434-1.196,2.445-2.505
		C51.286,135.94,50.105,134.762,48.735,134.772z M13.216,120.793c-0.174-0.515,0.475-1.483-0.966-1.474
		c-1.299,0.008-0.95,0.811-0.926,1.443c0.025,0.638-0.466,1.554,0.936,1.558C13.559,122.324,13.14,121.515,13.216,120.793z"/>
	<path fill="#04234B" d="M206.148,0.258c0.803,0.926,0.684,1.977,0.281,2.98c-1.44,3.578-2.951,7.128-4.394,10.705
		c-0.435,1.078-1.221,1.274-2.255,1.271c-8.426-0.02-16.852-0.011-25.278-0.011c-32.758,0-65.517,0.011-98.275-0.011
		c-5.257-0.003-10.289,0.858-14.758,3.756c-7.311,4.742-10.642,11.685-10.672,20.258c-0.024,6.727,2.378,12.441,7.4,17.061
		c7.276,6.693,14.457,13.491,21.68,20.242c0.661,0.618,1.301,1.249,1.759,2.042c1.666,2.887,0.084,5.992-3.24,6.335
		c-0.469,0.048-0.945,0.043-1.417,0.043c-20.807,0.002-41.614,0.002-62.422,0.001c-2.191,0-2.682-0.753-1.831-2.8
		c9.047-21.767,18.076-43.542,27.151-65.297C43.724,7.608,50.683,2.241,60.502,0.531c0.235-0.041,0.533,0.061,0.646-0.273
		c0.688,0,1.376,0,2.064,0c0.33,0.398,0.786,0.25,1.193,0.253c1.956,0.013,3.913,0.013,5.869,0c0.408-0.003,0.863,0.14,1.194-0.253
		C116.361,0.258,161.254,0.258,206.148,0.258z"/>
	<path fill="#04234B" d="M0.258,137.518c2.471,0.133,2.471,0.133,2.471-2.302c0-4.079-0.027-8.159,0.02-12.238
		c0.011-0.956-0.163-1.468-1.241-1.289c-0.672,0.111-1.107-0.007-1.113-0.91c-0.005-0.904,0.422-0.923,1.099-0.93
		c3.156-0.033,3.156-0.047,3.156,3.065c0,4.466,0.029,8.932-0.023,13.398c-0.011,0.976,0.198,1.426,1.241,1.259
		c0.646-0.103,1.12-0.047,1.117,0.885c-0.002,0.873-0.354,0.968-1.067,0.947c-1.886-0.057-3.774-0.057-5.661-0.079
		C0.258,138.722,0.258,138.12,0.258,137.518z"/>
	<path fill="#0A2950" d="M71.468,0.258c-0.332,0.393-0.787,0.25-1.194,0.253c-1.956,0.013-3.913,0.013-5.869,0
		c-0.407-0.003-0.863,0.145-1.193-0.253C65.964,0.258,68.716,0.258,71.468,0.258z"/>
	<path fill="#04234B" d="M108.751,34.4c11.006,0,22.012-0.001,33.018,0.001c2.489,0,2.933,0.669,1.981,2.968
		c-8.726,21.067-17.452,42.133-26.178,63.2c-1.07,2.582-2.021,3.232-4.772,3.234c-8.168,0.004-16.337,0.005-24.505-0.009
		c-0.39-0.001-0.996,0.255-1.13-0.276c-0.139-0.549,0.534-0.567,0.871-0.762c9.135-5.286,13.832-13.227,13.528-23.75
		c-0.185-6.413-3.267-11.76-7.911-16.128c-6.858-6.45-13.783-12.828-20.677-19.239c-0.566-0.527-1.149-1.043-1.663-1.618
		c-2.441-2.732-1.102-6.734,2.5-7.456c0.668-0.134,1.366-0.156,2.05-0.157C86.825,34.398,97.788,34.4,108.751,34.4z"/>
	<path fill="#04234B" d="M144.002,103.782c-1.677,0.001-3.354,0.006-5.03-0.001c-2.06-0.008-2.549-0.735-1.765-2.63
		c5.635-13.626,11.271-27.253,16.911-40.877c3.148-7.604,6.303-15.205,9.456-22.807c0.943-2.273,1.985-2.994,4.403-3.002
		c7.524-0.026,15.048-0.047,22.571-0.061c2.206-0.004,2.735,0.772,1.905,2.775c-6.891,16.632-13.692,33.303-20.711,49.881
		c-4.568,10.787-12.895,16.361-24.645,16.719C146.067,103.809,145.034,103.782,144.002,103.782z"/>
	<path fill="#0A2950" d="M90.591,139.656c1.266-0.265,2.08-0.076,2.796,1.154c1.237,2.125,3.91,2.856,6.355,2.07
		c2.19-0.705,3.284-2.556,3.187-5.618c-1.657,1.83-3.645,2.627-5.964,2.438c-2.352-0.191-4.262-1.266-5.654-3.173
		c-2.254-3.087-1.669-7.616,1.262-10.135c2.745-2.358,7.246-2.77,10.191,0.493c0.38-0.177,0.204-0.527,0.191-0.777
		c-0.038-0.755-0.034-1.263,1.03-1.259c1.013,0.004,1.064,0.423,1.057,1.218c-0.035,4.038,0.015,8.077-0.037,12.114
		c-0.049,3.809-2.445,6.383-6.212,6.798C94.866,145.411,91.533,143.266,90.591,139.656z M97.582,126.401
		c-3.083-0.021-5.539,2.486-5.57,5.686c-0.031,3.194,2.396,5.743,5.485,5.762c3.085,0.019,5.565-2.496,5.599-5.677
		C103.129,129.032,100.634,126.421,97.582,126.401z"/>
	<path fill="#0A2950" d="M110.025,126.242c3.127-2.482,6.195-2.141,8.786,0.769c0.975-1.319,2.259-2.166,3.889-2.391
		c3.645-0.502,6.457,1.741,6.702,5.57c0.181,2.826,0.036,5.671,0.082,8.507c0.016,0.98-0.654,0.664-1.146,0.72
		c-0.584,0.066-0.956-0.016-0.939-0.789c0.049-2.32,0.027-4.642,0.011-6.963c-0.004-0.642-0.031-1.292-0.136-1.923
		c-0.367-2.204-1.667-3.343-3.728-3.323c-2.027,0.02-3.384,1.248-3.62,3.438c-0.3,2.783-0.114,5.583-0.099,8.374
		c0.005,0.953-0.207,1.273-1.197,1.22c-0.779-0.042-0.898-0.333-0.896-1.009c0.008-2.836,0.071-5.678-0.087-8.507
		c-0.166-2.955-3.156-4.496-5.632-3.012c-1.414,0.847-1.801,2.24-1.82,3.76c-0.033,2.579-0.044,5.158,0.001,7.736
		c0.014,0.771-0.154,1.062-0.982,1.026c-0.746-0.033-1.137-0.079-1.123-1.026c0.061-4.126,0.024-8.252,0.028-12.379
		c0.001-0.566-0.212-1.258,0.819-1.162C109.667,124.945,110.569,124.686,110.025,126.242z"/>
	<path fill="#0A2950" d="M204.883,126.901c0-2.088,0.027-4.09-0.014-6.091c-0.014-0.699,0.147-0.979,0.911-0.986
		c0.776-0.007,0.903,0.289,0.901,0.979c-0.024,5.803-0.012,11.606-0.016,17.409c0,0.603,0.231,1.249-0.878,1.249
		c-1.093,0-0.902-0.617-0.903-1.243c0-0.257,0-0.513,0-1.003c-1.694,1.794-3.637,2.653-5.924,2.528
		c-2.294-0.126-4.229-1.058-5.701-2.856c-2.376-2.901-2.176-7.276,0.448-10.013C196.619,123.834,200.868,123.811,204.883,126.901z
		 M199.403,126.412c-3.336-0.015-5.755,2.409-5.752,5.763c0.003,3.262,2.426,5.679,5.701,5.687c3.163,0.008,5.607-2.417,5.66-5.616
		C205.065,129.063,202.53,126.426,199.403,126.412z"/>
	<path fill="#0A2950" d="M146.457,134.571c-0.781,2.973-3.794,5.191-7.034,5.19c-3.336-0.002-6.428-2.297-7.282-5.502
		c-0.816-3.061-0.024-5.726,2.347-7.809c2.337-2.053,5.068-2.519,7.917-1.26c2.883,1.274,4.317,3.65,4.614,6.769
		c0.084,0.882-0.316,0.968-1.037,0.963c-3.652-0.027-7.304,0.024-10.956-0.036c-1.032-0.017-1.173,0.33-0.851,1.174
		c0.762,1.996,2.153,3.325,4.26,3.698c2.15,0.38,4.116-0.224,5.305-2.096C144.487,134.487,145.296,134.31,146.457,134.571z
		 M139.503,131.064c1.505,0,3.011-0.022,4.515,0.011c0.61,0.013,0.858-0.1,0.675-0.783c-0.575-2.147-2.856-3.862-5.231-3.879
		c-2.388-0.017-4.667,1.641-5.289,3.792c-0.202,0.698-0.033,0.894,0.687,0.873C136.406,131.033,137.955,131.064,139.503,131.064z"/>
	<path fill="#0A2950" d="M189.03,134.578c-0.681,2.729-3.218,4.765-6.381,5.126c-2.947,0.336-6.021-1.379-7.409-4.134
		c-1.4-2.778-0.973-6.08,1.087-8.409c2.099-2.373,5.338-3.241,8.184-2.193c2.918,1.074,4.947,3.9,5.1,6.966
		c0.042,0.839-0.25,0.999-1.012,0.992c-3.607-0.034-7.214-0.017-10.821-0.014c-1.332,0.001-1.442,0.129-0.926,1.368
		c0.798,1.915,2.215,3.171,4.283,3.491c2.106,0.326,4.024-0.277,5.185-2.098C187.062,134.505,187.863,134.292,189.03,134.578z
		 M182.027,131.055c1.504,0,3.009-0.03,4.512,0.013c0.689,0.02,0.929-0.129,0.716-0.857c-0.619-2.118-2.823-3.768-5.15-3.8
		c-2.403-0.033-4.673,1.569-5.337,3.722c-0.231,0.747-0.034,0.966,0.747,0.938C179.017,131.016,180.523,131.055,182.027,131.055z"/>
	<path fill="#0A2950" d="M68.879,137.306c-3.869,3.194-8.275,3.159-11.26,0.012c-2.753-2.903-2.752-7.472,0.003-10.399
		c2.938-3.121,7.353-3.154,11.257,0.011c0-0.371,0.037-0.657-0.007-0.93c-0.145-0.904,0.213-1.126,1.113-1.148
		c1.017-0.025,0.964,0.494,0.962,1.185c-0.014,4.085-0.022,8.17,0.006,12.254c0.005,0.76-0.085,1.132-1.012,1.141
		c-0.973,0.01-1.187-0.353-1.068-1.191C68.912,137.967,68.879,137.683,68.879,137.306z M63.395,137.849
		c3.168-0.026,5.553-2.472,5.554-5.694c0.001-3.246-2.48-5.77-5.656-5.757c-3.306,0.014-5.759,2.527-5.702,5.84
		C57.646,135.482,60.124,137.876,63.395,137.849z"/>
	<path fill="#0A2950" d="M41.551,135.319c-1.3,2.628-3.351,4.138-6.225,4.362c-2.946,0.23-5.311-0.964-6.872-3.467
		c-1.597-2.561-1.506-5.233,0.023-7.805c1.667-2.803,4.912-4.063,8.132-3.26c3.011,0.751,5.272,3.508,5.482,6.58
		c0.065,0.952-0.099,1.351-1.199,1.327c-3.479-0.078-6.962,0.009-10.442-0.05c-1.14-0.019-1.176,0.38-0.859,1.287
		c1.337,3.828,6.399,4.91,9.149,1.93C39.775,135.101,39.775,135.101,41.551,135.319z M40.122,131.341
		c-0.395-2.656-2.535-4.519-5.255-4.629c-2.328-0.094-4.783,1.694-5.367,3.874c-0.147,0.549-0.074,0.77,0.558,0.766
		C33.41,131.33,36.761,131.341,40.122,131.341z"/>
	<path fill="#0A2950" d="M85.633,137.64c-1.382,1.64-3.015,2.255-4.91,2.111c-3.62-0.275-5.598-2.29-5.802-6.115
		c-0.141-2.658-0.014-5.329-0.065-7.992c-0.018-0.955,0.599-0.72,1.118-0.754c0.55-0.035,0.987-0.048,0.969,0.758
		c-0.049,2.148-0.031,4.298-0.008,6.447c0.008,0.77,0.051,1.548,0.171,2.307c0.364,2.303,1.766,3.502,4.024,3.502
		c2.216,0,3.921-1.338,4.278-3.503c0.457-2.772,0.15-5.576,0.184-8.365c0.01-0.849,0.145-1.21,1.104-1.18
		c0.815,0.026,0.998,0.274,0.992,1.044c-0.035,4.126-0.03,8.252-0.004,12.378c0.005,0.747-0.06,1.154-1.001,1.153
		c-0.919-0.001-1.102-0.363-1.003-1.13C85.695,138.178,85.663,138.047,85.633,137.64z"/>
	<path fill="#0A2950" d="M151.723,126.428c1.16-1.016,2.221-1.693,3.553-1.829c4.122-0.421,7.015,1.979,7.215,6.162
		c0.126,2.615-0.001,5.24,0.06,7.859c0.022,0.943-0.552,0.744-1.085,0.778c-0.615,0.038-1.035,0.019-1.014-0.837
		c0.058-2.447,0.058-4.897,0.006-7.345c-0.076-3.58-2.82-5.658-5.914-4.531c-1.756,0.639-2.743,2.178-2.784,4.504
		c-0.042,2.405-0.044,4.812,0.007,7.216c0.016,0.784-0.184,1.03-0.992,1.017c-0.805-0.012-1.116-0.174-1.105-1.065
		c0.05-4.037,0.021-8.076,0.023-12.114c0-0.694-0.237-1.398,1-1.413C151.853,124.816,151.8,125.399,151.723,126.428z"/>
	<path fill="#0A2950" d="M21.327,139.393c-0.73,0-1.461-0.003-2.191,0.001c-0.597,0.004-1.148,0.137-1.141-0.858
		c0.007-0.941,0.403-1.108,1.146-0.984c1.042,0.174,1.271-0.277,1.246-1.26c-0.067-2.705-0.077-5.415,0.003-8.119
		c0.032-1.092-0.201-1.627-1.379-1.4c-0.8,0.155-0.987-0.197-1.012-0.984c-0.03-0.931,0.441-0.987,1.095-0.892
		c0.978,0.143,1.297-0.197,1.321-1.228c0.049-2.128,1.44-3.616,3.544-3.93c0.377-0.056,1.086-0.59,1.213,0.339
		c0.088,0.638,0.144,1.251-0.817,1.411c-1.173,0.195-1.823,0.952-2.004,2.19c-0.14,0.955,0.048,1.354,1.081,1.229
		c0.599-0.073,1.31-0.241,1.258,0.869c-0.036,0.776-0.224,1.138-1.021,0.997c-1.162-0.206-1.444,0.296-1.41,1.416
		c0.083,2.704,0.077,5.414,0.001,8.119c-0.029,1.027,0.281,1.408,1.275,1.238c0.907-0.156,1.218,0.221,1.144,1.128
		c-0.046,0.565-0.239,0.744-0.777,0.726C23.047,139.371,22.187,139.392,21.327,139.393z"/>
	<path fill="#0A2950" d="M169.81,122.439c0,2.388,0,2.427,2.48,2.425c0.806-0.001,1.008,0.237,1.014,1.017
		c0.006,0.809-0.35,0.878-1.007,0.886c-2.487,0.03-2.487,0.05-2.487,2.586c0,3.003-0.033,6.007,0.021,9.009
		c0.015,0.85-0.228,1.07-1.066,1.081c-0.902,0.011-1.037-0.343-1.028-1.128c0.038-3.217,0.016-6.435,0.016-9.653
		c0-1.891-0.002-1.949-1.87-1.884c-0.935,0.033-1.127-0.278-1.117-1.149c0.012-1.083,0.74-0.72,1.245-0.731
		c1.742-0.038,1.743-0.019,1.743-1.767c0-0.686,0.026-1.374-0.007-2.059c-0.035-0.743-0.053-1.287,1.018-1.283
		c1.01,0.004,1.129,0.436,1.054,1.234C169.774,121.492,169.81,121.967,169.81,122.439z"/>
	<path fill="#0A2950" d="M13.69,131.237c0,1.715,0.061,3.434-0.024,5.145c-0.048,0.965,0.226,1.364,1.193,1.174
		c1.03-0.203,1.235,0.305,1.161,1.213c-0.042,0.523-0.23,0.639-0.699,0.634c-1.715-0.018-3.432-0.039-5.146,0.008
		c-0.758,0.021-0.809-0.357-0.815-0.948c-0.006-0.623,0.129-1.039,0.847-0.9c1.476,0.287,1.627-0.474,1.585-1.708
		c-0.09-2.656-0.059-5.317-0.01-7.976c0.016-0.865-0.184-1.274-1.127-1.169c-0.607,0.068-1.247,0.216-1.232-0.883
		c0.013-1.015,0.519-0.946,1.198-0.948c3.068-0.007,3.068-0.016,3.068,3.012C13.69,129.007,13.69,130.122,13.69,131.237z"/>
	<path fill="#0A2950" d="M48.735,134.772c1.37-0.01,2.552,1.168,2.539,2.532c-0.012,1.309-1.133,2.457-2.445,2.505
		c-1.342,0.049-2.572-1.12-2.605-2.474C46.191,135.982,47.367,134.782,48.735,134.772z"/>
	<path fill="#04234B" d="M13.216,120.793c-0.075,0.723,0.343,1.532-0.956,1.527c-1.402-0.005-0.912-0.92-0.936-1.558
		c-0.024-0.632-0.373-1.435,0.926-1.443C13.691,119.31,13.041,120.277,13.216,120.793z"/>
	<path fill="#FDFDFD" d="M97.582,126.401c3.052,0.021,5.546,2.631,5.513,5.771c-0.033,3.181-2.514,5.696-5.599,5.677
		c-3.089-0.019-5.516-2.568-5.485-5.762C92.044,128.887,94.5,126.38,97.582,126.401z"/>
	<path fill="#FDFDFD" d="M199.403,126.412c3.126,0.014,5.662,2.651,5.609,5.834c-0.054,3.199-2.497,5.624-5.66,5.616
		c-3.275-0.008-5.698-2.425-5.701-5.687C193.648,128.82,196.067,126.397,199.403,126.412z"/>
	<path fill="#FDFDFD" d="M139.503,131.064c-1.548,0-3.097-0.032-4.644,0.014c-0.72,0.021-0.888-0.175-0.687-0.873
		c0.622-2.151,2.901-3.809,5.289-3.792c2.375,0.017,4.656,1.731,5.231,3.879c0.183,0.683-0.065,0.796-0.675,0.783
		C142.514,131.043,141.008,131.064,139.503,131.064z"/>
	<path fill="#FDFDFD" d="M182.027,131.055c-1.504,0-3.01-0.039-4.512,0.016c-0.78,0.029-0.977-0.19-0.747-0.938
		c0.665-2.153,2.935-3.755,5.337-3.722c2.327,0.032,4.531,1.682,5.15,3.8c0.213,0.728-0.027,0.877-0.716,0.857
		C185.036,131.025,183.531,131.055,182.027,131.055z"/>
	<path fill="#FDFDFD" d="M63.395,137.849c-3.272,0.027-5.749-2.368-5.805-5.61c-0.057-3.314,2.396-5.826,5.702-5.84
		c3.177-0.014,5.657,2.511,5.656,5.757C68.949,135.378,66.563,137.823,63.395,137.849z"/>
	<path fill="#FDFDFD" d="M40.122,131.341c-3.361,0-6.712-0.012-10.064,0.01c-0.632,0.004-0.705-0.217-0.558-0.766
		c0.583-2.179,3.038-3.967,5.367-3.874C37.587,126.822,39.728,128.685,40.122,131.341z"/>
</g>
</svg>
